<?xml version="1.0" encoding="UTF-8" standalone="no"?>
<!-- Generator: Adobe Illustrator 27.8.0, SVG Export Plug-In . SVG Version: 6.00 Build 0)  -->

<svg
   xmlns:dc="http://purl.org/dc/elements/1.1/"
   xmlns:cc="http://creativecommons.org/ns#"
   xmlns:rdf="http://www.w3.org/1999/02/22-rdf-syntax-ns#"
   xmlns:svg="http://www.w3.org/2000/svg"
   xmlns="http://www.w3.org/2000/svg"
   xmlns:sodipodi="http://sodipodi.sourceforge.net/DTD/sodipodi-0.dtd"
   xmlns:inkscape="http://www.inkscape.org/namespaces/inkscape"
   version="1.1"
   id="Layer_1"
   x="0px"
   y="0px"
   viewBox="0 0 28.3 28.3"
   style="enable-background:new 0 0 28.3 28.3;"
   xml:space="preserve"
   sodipodi:docname="Attention.svg"
   inkscape:version="0.92.4 (5da689c313, 2019-01-14)"><metadata
   id="metadata16"><rdf:RDF><cc:Work
       rdf:about=""><dc:format>image/svg+xml</dc:format><dc:type
         rdf:resource="http://purl.org/dc/dcmitype/StillImage" /><dc:title></dc:title></cc:Work></rdf:RDF></metadata><defs
   id="defs14" /><sodipodi:namedview
   pagecolor="#ffffff"
   bordercolor="#666666"
   borderopacity="1"
   objecttolerance="10"
   gridtolerance="10"
   guidetolerance="10"
   inkscape:pageopacity="0"
   inkscape:pageshadow="2"
   inkscape:window-width="1920"
   inkscape:window-height="1017"
   id="namedview12"
   showgrid="false"
   inkscape:zoom="16.678446"
   inkscape:cx="-1.945739"
   inkscape:cy="12.713195"
   inkscape:window-x="1672"
   inkscape:window-y="122"
   inkscape:window-maximized="1"
   inkscape:current-layer="Layer_1" />
<style
   type="text/css"
   id="style2">
	.st0{fill:#F88D2A;}
	.st1{fill:#FFFFFF;}
</style>
<rect
   id="rect4529_00000063604551412590299490000010309977182047121825_"
   y="0"
   class="st0"
   width="28.299999"
   height="28.299999"
   ry="2.0385592"
   x="0"
   style="fill:#f88d2a" />
<polygon
   class="st1"
   points="27.8,14.1 22.4,16.8 25.2,22.2 19.2,21.1 18.4,27.2 14.1,22.8 9.9,27.2 9.1,21.1 3.1,22.2 5.9,16.8   0.5,14.1 5.9,11.5 3.1,6.1 9.1,7.1 9.9,1.1 14.1,5.5 18.4,1.1 19.2,7.1 25.2,6.1 22.4,11.5 "
   id="polygon5" />
<g
   id="g9">
	<path
   class="st0"
   d="M14.4,16.5H14c0-0.7-0.2-1.7-0.5-2.7L13,11.7c-0.3-1.3-0.5-2.2-0.5-2.8c0-0.5,0.2-0.9,0.5-1.2   c0.3-0.3,0.7-0.5,1.2-0.5s0.9,0.2,1.2,0.5s0.5,0.7,0.5,1.2s-0.2,1.4-0.5,2.8l-0.5,2.1C14.6,14.6,14.4,15.5,14.4,16.5z M14.2,17.9   c0.4,0,0.8,0.2,1.1,0.5s0.5,0.7,0.5,1.1s-0.2,0.8-0.5,1.1s-0.7,0.5-1.1,0.5c-0.4,0-0.8-0.2-1.1-0.5s-0.5-0.7-0.5-1.1   s0.2-0.8,0.5-1.1C13.3,18.1,13.7,17.9,14.2,17.9z"
   id="path7" />
</g>
</svg>