<?xml version="1.0" encoding="UTF-8" standalone="no"?>
<svg
   xmlns:dc="http://purl.org/dc/elements/1.1/"
   xmlns:cc="http://creativecommons.org/ns#"
   xmlns:rdf="http://www.w3.org/1999/02/22-rdf-syntax-ns#"
   xmlns:svg="http://www.w3.org/2000/svg"
   xmlns="http://www.w3.org/2000/svg"
   xmlns:sodipodi="http://sodipodi.sourceforge.net/DTD/sodipodi-0.dtd"
   xmlns:inkscape="http://www.inkscape.org/namespaces/inkscape"
   xml:space="preserve"
   style="enable-background:new 0 0 99.2 28.3;"
   viewBox="0 0 99.2 28.3"
   y="0px"
   x="0px"
   id="Layer_1"
   version="1.1"
   sodipodi:docname="Caution.svg"
   inkscape:version="0.92.4 (5da689c313, 2019-01-14)"><sodipodi:namedview
   pagecolor="#ffffff"
   bordercolor="#666666"
   borderopacity="1"
   objecttolerance="10"
   gridtolerance="10"
   guidetolerance="10"
   inkscape:pageopacity="0"
   inkscape:pageshadow="2"
   inkscape:window-width="1680"
   inkscape:window-height="987"
   id="namedview22"
   showgrid="false"
   inkscape:zoom="6.0685486"
   inkscape:cx="41.819918"
   inkscape:cy="-10.477843"
   inkscape:window-x="-8"
   inkscape:window-y="421"
   inkscape:window-maximized="1"
   inkscape:current-layer="Layer_1" /><metadata
   id="metadata38"><rdf:RDF><cc:Work
       rdf:about=""><dc:format>image/svg+xml</dc:format><dc:type
         rdf:resource="http://purl.org/dc/dcmitype/StillImage" /><dc:title></dc:title></cc:Work></rdf:RDF></metadata><defs
   id="defs36" />
<style
   id="style2"
   type="text/css">
	.st0{fill:#FDDA64;}
	.st1{enable-background:new    ;}
</style>
<rect
   style="fill:#ffd100;fill-opacity:1;stroke:none;stroke-width:1.00157475;stroke-linecap:round;stroke-linejoin:round;stroke-miterlimit:4;stroke-dasharray:none;stroke-dashoffset:0;stroke-opacity:0"
   id="rect829"
   width="99.274971"
   height="28.256081"
   x="-0.087389931"
   y="0.043919276"
   rx="3.1460378"
   ry="3.1460378" />


<g
   style="stroke-width:0.91525495"
   transform="matrix(1.0925917,0,0,1.0925917,-5.1950534,-1.2131727)"
   id="g31">
	<g
   style="stroke-width:0.91525495"
   transform="translate(-69.793098,-87.468681)"
   id="layer1_00000176748680028487020730000008476502975843673004_">
		<g
   style="stroke-width:0.91525495;enable-background:new"
   id="g28"
   class="st1">
			<path
   style="stroke-width:0.91525495"
   id="path14"
   d="m 111.2,104.9 c 0,0.1 0,0.2 0,0.3 0,0.1 0,0.2 0,0.2 0,0 0,0.1 -0.1,0.2 0,0 -0.1,0.1 -0.1,0.1 -0.1,0.1 -0.2,0.1 -0.3,0.2 -0.2,0.1 -0.3,0.2 -0.6,0.2 -0.2,0.1 -0.5,0.1 -0.8,0.2 -0.3,0.1 -0.6,0.1 -0.9,0.1 -0.6,0 -1.2,-0.1 -1.7,-0.3 -0.5,-0.2 -1,-0.5 -1.3,-0.9 -0.4,-0.4 -0.6,-0.9 -0.8,-1.5 -0.2,-0.6 -0.3,-1.3 -0.3,-2.1 0,-0.8 0.1,-1.5 0.3,-2.1 0.2,-0.6 0.5,-1.1 0.9,-1.6 0.4,-0.4 0.8,-0.7 1.4,-1 0.5,-0.2 1.1,-0.3 1.8,-0.3 0.3,0 0.5,0 0.8,0.1 0.2,0 0.5,0.1 0.7,0.2 0.2,0.1 0.4,0.2 0.6,0.2 0.2,0.1 0.3,0.2 0.3,0.2 0,0 0.1,0.1 0.1,0.2 0,0 0,0.1 0.1,0.2 0,0.1 0,0.1 0,0.2 0,0.1 0,0.2 0,0.3 0,0.1 0,0.3 0,0.4 0,0.1 0,0.2 -0.1,0.2 0,0.1 -0.1,0.1 -0.1,0.1 0,0 -0.1,0 -0.1,0 -0.1,0 -0.2,0 -0.3,-0.1 -0.1,-0.1 -0.3,-0.2 -0.4,-0.3 -0.2,-0.1 -0.4,-0.2 -0.6,-0.3 -0.2,-0.1 -0.5,-0.1 -0.9,-0.1 -0.4,0 -0.7,0.1 -1,0.2 -0.3,0.2 -0.5,0.4 -0.7,0.7 -0.2,0.3 -0.4,0.6 -0.5,1 -0.1,0.4 -0.2,0.9 -0.2,1.4 0,0.6 0.1,1 0.2,1.4 0.1,0.4 0.3,0.7 0.5,1 0.2,0.3 0.5,0.5 0.8,0.6 0.3,0.1 0.6,0.2 1,0.2 0.3,0 0.6,0 0.9,-0.1 0.2,-0.1 0.5,-0.2 0.6,-0.3 0.2,-0.1 0.3,-0.2 0.4,-0.3 0.1,-0.1 0.2,-0.1 0.3,-0.1 0,0 0.1,0 0.1,0 0,0 0.1,0.1 0.1,0.1 0,0 0,0.1 0,0.2 -0.1,0.5 -0.1,0.7 -0.1,0.8 z"
   inkscape:connector-curvature="0" />
			<path
   style="stroke-width:0.91525495"
   id="path16"
   d="m 120.3,105.6 c 0.1,0.2 0.1,0.3 0.1,0.4 0,0.1 0,0.2 -0.1,0.2 -0.1,0.1 -0.1,0.1 -0.3,0.1 -0.1,0 -0.3,0 -0.6,0 -0.2,0 -0.4,0 -0.6,0 -0.1,0 -0.2,0 -0.3,0 -0.1,0 -0.1,-0.1 -0.2,-0.1 0,0 -0.1,-0.1 -0.1,-0.2 l -0.6,-1.9 h -3.5 l -0.6,1.8 c 0,0.1 0,0.1 -0.1,0.2 0,0 -0.1,0.1 -0.2,0.1 -0.1,0 -0.2,0 -0.3,0.1 -0.1,0 -0.3,0 -0.5,0 -0.2,0 -0.4,0 -0.5,0 -0.1,0 -0.2,0 -0.3,-0.1 -0.1,-0.1 -0.1,-0.1 -0.1,-0.2 0,-0.1 0.1,-0.2 0.1,-0.4 l 2.9,-8.3 c 0,-0.1 0.1,-0.1 0.1,-0.2 0,-0.1 0.1,-0.1 0.2,-0.1 0.1,0 0.2,0 0.4,-0.1 0.2,-0.1 0.3,0 0.6,0 0.3,0 0.5,0 0.7,0 0.2,0 0.3,0 0.4,0.1 0.1,0 0.2,0.1 0.2,0.1 0,0 0.1,0.1 0.1,0.2 z M 116,98.7 v 0 l -1.3,4 h 2.7 z"
   inkscape:connector-curvature="0" />
			<path
   style="stroke-width:0.91525495"
   id="path18"
   d="m 129,102.9 c 0,0.6 -0.1,1.1 -0.3,1.5 -0.2,0.5 -0.4,0.8 -0.7,1.2 -0.3,0.3 -0.7,0.6 -1.2,0.7 -0.5,0.2 -1,0.2 -1.7,0.2 -0.6,0 -1.1,-0.1 -1.6,-0.2 -0.5,-0.1 -0.9,-0.4 -1.2,-0.7 -0.3,-0.3 -0.6,-0.7 -0.7,-1.1 -0.1,-0.4 -0.3,-1 -0.3,-1.6 v -5.7 c 0,0 0,-0.1 0,-0.1 0,0 0.1,-0.1 0.2,-0.1 0.1,0 0.2,0 0.3,-0.1 0.1,0 0.3,0 0.5,0 0.2,0 0.3,0 0.5,0 0.1,0 0.2,0 0.3,0.1 0.1,0 0.1,0.1 0.2,0.1 0,0 0,0.1 0,0.1 v 5.6 c 0,0.4 0,0.7 0.1,1 0.1,0.3 0.2,0.5 0.4,0.7 0.2,0.2 0.4,0.3 0.6,0.4 0.2,0.1 0.5,0.1 0.8,0.1 0.3,0 0.6,0 0.8,-0.1 0.2,-0.1 0.4,-0.2 0.6,-0.4 0.2,-0.2 0.3,-0.4 0.4,-0.7 0.1,-0.3 0.1,-0.6 0.1,-0.9 v -5.7 c 0,0 0,-0.1 0,-0.1 0,0 0.1,-0.1 0.2,-0.1 0.1,0 0.2,0 0.3,-0.1 0.1,0 0.3,0 0.5,0 0.2,0 0.3,0 0.5,0 0.1,0 0.2,0 0.3,0.1 0.1,0 0.1,0.1 0.2,0.1 0,0 0,0.1 0,0.1 v 5.7 z"
   inkscape:connector-curvature="0" />
			<path
   style="stroke-width:0.91525495"
   id="path20"
   d="m 137.3,97.7 c 0,0.1 0,0.3 0,0.4 0,0.1 0,0.2 -0.1,0.2 -0.1,0 -0.1,0.1 -0.1,0.1 0,0 -0.1,0 -0.1,0 h -2.4 v 7.6 c 0,0 0,0.1 0,0.1 0,0 -0.1,0.1 -0.2,0.1 -0.1,0 -0.2,0 -0.3,0.1 -0.1,0 -0.3,0 -0.5,0 -0.2,0 -0.3,0 -0.5,0 -0.1,0 -0.2,0 -0.3,-0.1 -0.1,0 -0.1,-0.1 -0.2,-0.1 0,0 0,-0.1 0,-0.1 v -7.6 h -2.4 c 0,0 -0.1,0 -0.1,0 0,0 -0.1,-0.1 -0.1,-0.1 0,0 0,-0.1 -0.1,-0.2 0,-0.1 0,-0.2 0,-0.4 0,-0.1 0,-0.3 0,-0.4 0,-0.1 0,-0.2 0.1,-0.2 0.1,0 0.1,-0.1 0.1,-0.1 0,0 0.1,0 0.1,0 h 6.6 c 0,0 0.1,0 0.1,0 0,0 0.1,0.1 0.1,0.1 0,0 0,0.1 0.1,0.2 0.2,0.2 0.2,0.3 0.2,0.4 z"
   inkscape:connector-curvature="0" />
			<path
   style="stroke-width:0.91525495"
   id="path22"
   d="m 140.4,106.1 c 0,0 0,0.1 0,0.1 0,0 -0.1,0.1 -0.2,0.1 -0.1,0 -0.2,0 -0.3,0.1 -0.1,0.1 -0.3,0 -0.5,0 -0.2,0 -0.3,0 -0.5,0 -0.1,0 -0.2,0 -0.3,-0.1 -0.1,0 -0.1,-0.1 -0.2,-0.1 -0.1,0 0,-0.1 0,-0.1 v -8.9 c 0,0 0,-0.1 0,-0.1 0,0 0.1,-0.1 0.2,-0.1 0.1,0 0.2,0 0.3,-0.1 0.1,0 0.3,0 0.5,0 0.2,0 0.3,0 0.5,0 0.1,0 0.2,0 0.3,0.1 0.1,0 0.1,0.1 0.2,0.1 0,0 0,0.1 0,0.1 z"
   inkscape:connector-curvature="0" />
			<path
   style="stroke-width:0.91525495"
   id="path24"
   d="m 150.9,101.5 c 0,0.8 -0.1,1.5 -0.3,2.1 -0.2,0.6 -0.5,1.1 -0.9,1.6 -0.4,0.4 -0.9,0.8 -1.4,1 -0.6,0.2 -1.2,0.3 -2,0.3 -0.7,0 -1.4,-0.1 -1.9,-0.3 -0.5,-0.2 -1,-0.5 -1.4,-0.9 -0.4,-0.4 -0.6,-0.9 -0.8,-1.5 -0.2,-0.6 -0.3,-1.3 -0.3,-2.2 0,-0.8 0.1,-1.4 0.3,-2.1 0.2,-0.6 0.5,-1.1 0.9,-1.6 0.4,-0.4 0.9,-0.8 1.4,-1 0.6,-0.2 1.2,-0.3 2,-0.3 0.7,0 1.3,0.1 1.9,0.3 0.5,0.2 1,0.5 1.4,0.9 0.4,0.4 0.6,0.9 0.8,1.5 0.2,0.6 0.3,1.4 0.3,2.2 z m -2,0.1 c 0,-0.5 0,-0.9 -0.1,-1.3 -0.1,-0.4 -0.2,-0.8 -0.4,-1 -0.2,-0.3 -0.4,-0.5 -0.7,-0.7 -0.3,-0.2 -0.7,-0.2 -1.2,-0.2 -0.5,0 -0.9,0.1 -1.2,0.3 -0.3,0.2 -0.6,0.4 -0.8,0.7 -0.2,0.3 -0.3,0.6 -0.4,1 -0.1,0.4 -0.1,0.8 -0.1,1.3 0,0.5 0,1 0.1,1.4 0.1,0.4 0.2,0.8 0.4,1.1 0.2,0.3 0.4,0.5 0.7,0.7 0.3,0.2 0.7,0.2 1.2,0.2 0.5,0 0.9,-0.1 1.2,-0.3 0.3,-0.2 0.6,-0.4 0.8,-0.7 0.2,-0.3 0.3,-0.7 0.4,-1.1 0,-0.5 0.1,-0.9 0.1,-1.4 z"
   inkscape:connector-curvature="0" />
			<path
   style="stroke-width:0.91525495"
   id="path26"
   d="m 160.2,105.7 c 0,0.1 0,0.2 -0.1,0.3 0,0.1 -0.1,0.2 -0.2,0.2 -0.1,0.1 -0.1,0.1 -0.2,0.1 -0.1,0 -0.2,0 -0.3,0 h -0.8 c -0.2,0 -0.3,0 -0.4,-0.1 -0.1,0 -0.2,-0.1 -0.3,-0.2 -0.1,-0.1 -0.2,-0.2 -0.3,-0.4 -0.1,-0.2 -0.2,-0.3 -0.3,-0.6 l -2.3,-4.4 c -0.1,-0.3 -0.3,-0.5 -0.4,-0.8 -0.1,-0.3 -0.3,-0.6 -0.4,-0.9 v 0 c 0,0.3 0,0.7 0,1 0,0.3 0,0.7 0,1.1 v 4.9 c 0,0 0,0.1 0,0.1 0,0 -0.1,0.1 -0.1,0.1 0,0 -0.2,0 -0.3,0.1 -0.1,0.1 -0.3,0 -0.4,0 -0.2,0 -0.3,0 -0.4,0 -0.1,0 -0.2,0 -0.3,-0.1 -0.1,0 -0.1,-0.1 -0.1,-0.1 0,0 0,-0.1 0,-0.1 v -8.5 c 0,-0.2 0.1,-0.4 0.2,-0.5 0.1,-0.1 0.3,-0.2 0.5,-0.2 h 1 c 0.2,0 0.3,0 0.5,0 0.1,0 0.2,0.1 0.3,0.2 0.1,0.1 0.2,0.2 0.3,0.3 0.1,0.1 0.2,0.3 0.3,0.5 l 1.8,3.4 c 0.1,0.2 0.2,0.4 0.3,0.6 0.1,0.2 0.2,0.4 0.3,0.6 0.1,0.2 0.2,0.4 0.3,0.6 0.1,0.2 0.2,0.4 0.3,0.6 v 0 c 0,-0.3 0,-0.7 0,-1.1 0,-0.4 0,-0.7 0,-1.1 v -4.4 c 0,0 0,-0.1 0,-0.1 0,0 0.1,-0.1 0.1,-0.1 0.1,0 0.2,0 0.3,-0.1 0.1,0 0.3,0 0.4,0 0.2,0 0.3,0 0.4,0 0.1,0 0.2,0 0.3,0.1 0.1,0 0.1,0.1 0.1,0.1 0,0 0,0.1 0,0.1 v 8.8 z"
   inkscape:connector-curvature="0" />
		</g>
	</g>
</g>
<g
   id="g2141"
   transform="matrix(0.84577993,0,0,0.84577993,1.2107225,2.5010396)"
   style="stroke-width:1.18234062"><path
     style="stroke-width:1.18234062"
     id="sign_border"
     d="M 31.213495,24.779489 18.108933,2.0797168 C 17.975044,1.8488407 17.730321,1.7103125 17.467119,1.7103125 c -0.263194,0 -0.507916,0.1431437 -0.641849,0.3694043 L 3.7207309,24.779489 c -0.133909,0.230876 -0.133909,0.512545 0,0.738805 0.133907,0.230876 0.378636,0.3694 0.641836,0.3694 H 30.571646 c 0.263194,0 0.507959,-0.143143 0.641849,-0.3694 0.133898,-0.230877 0.133898,-0.512548 0,-0.738805 z"
     inkscape:connector-curvature="0" /><polygon
     style="overflow:visible;fill:#f6bd16;fill-opacity:1;stroke:none;stroke-width:25.60548401"
     id="polygon7"
     transform="matrix(0.04617529,0,0,0.04598664,3.6249129,1.8041974)"
     points="555.875,491.5 43.875,491.5 299.875,48.2 " /><g
     style="stroke-width:0.79506034"
     id="g12"
     transform="matrix(1.4871081,0,0,1.4871081,-7.5915621,-7.5804912)"><path
       style="stroke-width:0.79506034"
       d="m 16.950605,17.3 h -0.3 c 0,-0.5 -0.1,-1.1 -0.3,-1.8 l -0.3,-1.5 c -0.2,-0.9 -0.3,-1.5 -0.3,-1.9 0,-0.3 0.1,-0.6 0.3,-0.8 0.2,-0.2 0.5,-0.3 0.8,-0.3 0.3,0 0.6,0.1 0.8,0.3 0.2,0.2 0.3,0.5 0.3,0.8 0,0.3 -0.1,1 -0.3,1.9 l -0.4,1.5 c -0.1,0.4 -0.2,1.1 -0.3,1.8 z m -0.1,0.9 c 0.3,0 0.6,0.1 0.8,0.3 0.2,0.2 0.3,0.5 0.3,0.8 0,0.3 -0.1,0.6 -0.3,0.8 -0.2,0.2 -0.5,0.3 -0.8,0.3 -0.3,0 -0.6,-0.1 -0.8,-0.3 -0.2,-0.2 -0.3,-0.5 -0.3,-0.8 0,-0.3 0.1,-0.6 0.3,-0.8 0.2,-0.2 0.5,-0.3 0.8,-0.3 z"
       id="path10"
       inkscape:connector-curvature="0" /></g></g></svg>