<?xml version="1.0" encoding="UTF-8" standalone="no"?>
<svg
   xmlns:dc="http://purl.org/dc/elements/1.1/"
   xmlns:cc="http://creativecommons.org/ns#"
   xmlns:rdf="http://www.w3.org/1999/02/22-rdf-syntax-ns#"
   xmlns:svg="http://www.w3.org/2000/svg"
   xmlns="http://www.w3.org/2000/svg"
   xmlns:sodipodi="http://sodipodi.sourceforge.net/DTD/sodipodi-0.dtd"
   xmlns:inkscape="http://www.inkscape.org/namespaces/inkscape"
   xml:space="preserve"
   style="enable-background:new 0 0 99.2 28.3;"
   viewBox="0 0 99.2 28.3"
   y="0px"
   x="0px"
   id="Layer_1"
   version="1.1"
   sodipodi:docname="Notice.svg"
   inkscape:version="0.92.4 (5da689c313, 2019-01-14)"><sodipodi:namedview
   pagecolor="#ffffff"
   bordercolor="#666666"
   borderopacity="1"
   objecttolerance="10"
   gridtolerance="10"
   guidetolerance="10"
   inkscape:pageopacity="0"
   inkscape:pageshadow="2"
   inkscape:window-width="1680"
   inkscape:window-height="987"
   id="namedview14"
   showgrid="false"
   inkscape:zoom="8.5822237"
   inkscape:cx="53.952143"
   inkscape:cy="4.7614597"
   inkscape:window-x="-8"
   inkscape:window-y="421"
   inkscape:window-maximized="1"
   inkscape:current-layer="Layer_1" /><metadata
   id="metadata27"><rdf:RDF><cc:Work
       rdf:about=""><dc:format>image/svg+xml</dc:format><dc:type
         rdf:resource="http://purl.org/dc/dcmitype/StillImage" /><dc:title></dc:title></cc:Work></rdf:RDF></metadata><defs
   id="defs25">
	

		
			
		
	</defs>
<style
   id="style2"
   type="text/css">
	.st0{fill:#194F90;}
	.st1{enable-background:new    ;}
	.st2{fill:#FCFDFB;}
</style>
<rect
   style="fill:#194f90"
   height="28.299999"
   width="99.199997"
   class="st0"
   y="0.031319"
   x="0.0069050519"
   id="rect4529_00000076591587913420140000000007276007602054143142_"
   ry="3.3790777" /><g
   transform="matrix(1.2593496,0,0,1.2593496,-100.94834,-113.83157)"
   style="stroke-width:0.79406065;enable-background:new"
   id="g17"
   class="st1">
			<path
   style="fill:#fcfdfb;stroke-width:0.79406065"
   id="path5"
   d="m 104.1,105.7 c 0,0.1 -0.1,0.2 -0.1,0.3 -0.1,0.1 -0.1,0.2 -0.2,0.2 -0.1,0.1 -0.2,0.1 -0.2,0.1 -0.1,0 -0.2,0 -0.3,0 h -0.8 c -0.2,0 -0.3,0 -0.4,-0.1 -0.1,-0.1 -0.2,-0.1 -0.3,-0.2 -0.1,-0.1 -0.2,-0.2 -0.2,-0.4 -0.1,-0.2 -0.1,-0.3 -0.2,-0.6 l -1.4,-4.2 c -0.1,-0.3 -0.2,-0.7 -0.3,-1 -0.1,-0.3 -0.2,-0.7 -0.3,-1 v 0 c 0,0.4 -0.1,0.8 -0.2,1.1 -0.1,0.4 -0.1,0.7 -0.2,1.1 l -1,4.8 c 0,0 0,0.1 -0.1,0.1 0,0 -0.1,0.1 -0.2,0.1 -0.1,0 -0.2,0 -0.3,0.1 -0.1,0 -0.3,0 -0.4,0 -0.2,0 -0.3,0 -0.4,0 -0.1,0 -0.2,0 -0.3,-0.1 -0.1,0 -0.1,-0.1 -0.1,-0.1 0,0 0,-0.1 0,-0.1 l 1.7,-8.5 c 0,-0.2 0.1,-0.4 0.3,-0.5 0.2,-0.1 0.3,-0.2 0.5,-0.2 h 1 c 0.2,0 0.3,0 0.4,0.1 0.1,0 0.2,0.1 0.3,0.2 0.1,0.1 0.2,0.2 0.2,0.3 0.1,0.1 0.1,0.3 0.2,0.5 l 1.4,4.2 c 0.1,0.3 0.2,0.5 0.3,0.8 0.1,0.3 0.2,0.5 0.2,0.8 v 0 c 0.1,-0.4 0.1,-0.7 0.2,-1.1 0.1,-0.4 0.1,-0.7 0.2,-1.1 l 0.9,-4.4 c 0,0 0,-0.1 0.1,-0.1 0,0 0.1,-0.1 0.2,-0.1 0.1,0 0.2,0 0.3,-0.1 0.1,0 0.3,0 0.4,0 0.1,0 0.3,0 0.4,0 0.1,0 0.2,0 0.3,0.1 0.1,0 0.1,0.1 0.1,0.1 0,0 0,0.1 0,0.1 z"
   class="st2"
   inkscape:connector-curvature="0" />
			<path
   style="fill:#fcfdfb;stroke-width:0.79406065"
   id="path7"
   d="m 115.6,100.1 c 0,0.4 0,0.9 -0.1,1.4 -0.1,0.5 -0.2,1 -0.4,1.4 -0.2,0.5 -0.4,0.9 -0.7,1.4 -0.3,0.4 -0.6,0.8 -1,1.2 -0.4,0.3 -0.9,0.6 -1.4,0.8 -0.5,0.2 -1.2,0.3 -1.9,0.3 -0.6,0 -1.1,-0.1 -1.6,-0.2 -0.5,-0.1 -0.8,-0.3 -1.1,-0.6 -0.3,-0.3 -0.5,-0.6 -0.7,-1 -0.2,-0.4 -0.2,-0.9 -0.2,-1.5 0,-0.5 0,-0.9 0.1,-1.4 0.1,-0.5 0.2,-1 0.4,-1.5 0.2,-0.5 0.4,-0.9 0.7,-1.4 0.3,-0.4 0.6,-0.8 1,-1.1 0.4,-0.3 0.9,-0.6 1.4,-0.8 0.5,-0.2 1.2,-0.3 1.8,-0.3 0.6,0 1.1,0.1 1.6,0.2 0.5,0.1 0.8,0.3 1.1,0.6 0.3,0.3 0.5,0.6 0.7,1 0.3,0.4 0.3,0.9 0.3,1.5 z m -2,0.1 c 0,-0.3 0,-0.6 -0.1,-0.8 -0.1,-0.2 -0.2,-0.4 -0.3,-0.6 -0.1,-0.2 -0.3,-0.3 -0.6,-0.4 -0.2,-0.1 -0.5,-0.1 -0.9,-0.1 -0.4,0 -0.8,0.1 -1.1,0.2 -0.3,0.2 -0.6,0.4 -0.8,0.6 -0.2,0.3 -0.4,0.6 -0.6,0.9 -0.2,0.3 -0.3,0.7 -0.4,1 -0.1,0.3 -0.2,0.7 -0.2,1 0,0.3 -0.1,0.6 -0.1,0.9 0,0.3 0,0.6 0.1,0.8 0.1,0.2 0.2,0.4 0.3,0.6 0.1,0.2 0.3,0.3 0.6,0.4 0.3,0.1 0.5,0.1 0.9,0.1 0.4,0 0.8,-0.1 1.1,-0.2 0.3,-0.2 0.6,-0.4 0.8,-0.6 0.2,-0.3 0.4,-0.6 0.6,-0.9 0.2,-0.3 0.3,-0.7 0.4,-1 0.1,-0.3 0.2,-0.7 0.2,-1 0.1,-0.3 0.1,-0.6 0.1,-0.9 z"
   class="st2"
   inkscape:connector-curvature="0" />
			<path
   style="fill:#fcfdfb;stroke-width:0.79406065"
   id="path9"
   d="m 124.1,97.2 c 0,0 0,0.1 0,0.2 0,0.1 0,0.2 0,0.3 0,0.1 0,0.2 -0.1,0.3 0,0.1 -0.1,0.2 -0.1,0.3 0,0.1 -0.1,0.2 -0.1,0.2 -0.1,0.1 -0.1,0.1 -0.2,0.1 h -2.4 l -1.5,7.6 c 0,0 0,0.1 -0.1,0.1 0,0 -0.1,0.1 -0.2,0.1 -0.1,0 -0.2,0 -0.3,0.1 -0.1,0 -0.3,0 -0.5,0 -0.2,0 -0.3,0 -0.5,0 -0.1,0 -0.2,0 -0.3,-0.1 -0.1,-0.1 -0.1,-0.1 -0.1,-0.1 0,0 0,-0.1 0,-0.1 l 1.5,-7.6 h -2.4 c -0.1,0 -0.1,0 -0.1,-0.1 0,-0.1 0,-0.1 0,-0.2 0,0 0,-0.1 0,-0.2 0,-0.1 0,-0.2 0,-0.3 0,-0.1 0,-0.2 0.1,-0.3 0,-0.1 0.1,-0.2 0.1,-0.3 0,-0.1 0.1,-0.1 0.1,-0.2 0,-0.1 0.1,-0.1 0.2,-0.1 h 6.7 c 0.1,0 0.1,0 0.1,0.1 0.1,0 0.1,0.1 0.1,0.2 z"
   class="st2"
   inkscape:connector-curvature="0" />
			<path
   style="fill:#fcfdfb;stroke-width:0.79406065"
   id="path11"
   d="m 125.5,106.1 c 0,0 0,0.1 -0.1,0.1 0,0 -0.1,0.1 -0.2,0.1 -0.1,0 -0.2,0 -0.3,0.1 -0.1,0 -0.3,0 -0.5,0 -0.2,0 -0.3,0 -0.5,0 -0.1,0 -0.2,0 -0.3,-0.1 -0.1,0 -0.1,-0.1 -0.1,-0.1 0,0 0,-0.1 0,-0.1 l 1.8,-8.9 c 0,0 0,-0.1 0.1,-0.1 0,0 0.1,-0.1 0.2,-0.1 0.1,0 0.2,0 0.3,-0.1 0.1,0 0.3,0 0.5,0 0.2,0 0.3,0 0.5,0 0.1,0 0.2,0 0.3,0.1 0.1,0 0.1,0.1 0.1,0.1 0,0 0,0.1 0,0.1 z"
   class="st2"
   inkscape:connector-curvature="0" />
			<path
   style="fill:#fcfdfb;stroke-width:0.79406065"
   id="path13"
   d="m 135.7,97.8 c 0,0.1 0,0.3 -0.1,0.5 0,0.2 -0.1,0.4 -0.2,0.6 -0.1,0.1 -0.2,0.2 -0.2,0.2 -0.1,0 -0.1,0 -0.2,-0.1 -0.1,-0.1 -0.2,-0.2 -0.3,-0.3 -0.1,-0.1 -0.3,-0.2 -0.5,-0.3 -0.2,-0.1 -0.5,-0.1 -0.8,-0.1 -0.4,0 -0.7,0.1 -1,0.2 -0.3,0.1 -0.6,0.3 -0.8,0.6 -0.2,0.2 -0.4,0.5 -0.6,0.8 -0.2,0.3 -0.3,0.6 -0.4,1 -0.1,0.3 -0.2,0.7 -0.3,1 -0.1,0.3 -0.1,0.6 -0.1,0.9 0,0.3 0,0.6 0.1,0.9 0.1,0.3 0.2,0.5 0.4,0.6 0.2,0.2 0.4,0.3 0.6,0.4 0.2,0.1 0.5,0.1 0.8,0.1 0.3,0 0.6,0 0.9,-0.1 0.2,-0.1 0.5,-0.2 0.6,-0.2 0.2,-0.1 0.3,-0.2 0.4,-0.2 0.1,-0.1 0.2,-0.1 0.3,-0.1 0.1,0 0.1,0 0.1,0.1 0,0 0,0.1 0,0.2 0,0 0,0.1 0,0.2 0,0.1 0,0.1 0,0.2 0,0.1 0,0.2 -0.1,0.3 0,0.1 0,0.2 -0.1,0.3 0,0.1 -0.1,0.2 -0.1,0.2 0,0 -0.1,0.1 -0.1,0.2 -0.1,0.1 -0.2,0.1 -0.3,0.2 -0.2,0.1 -0.3,0.2 -0.6,0.2 -0.2,0.1 -0.5,0.1 -0.8,0.2 -0.3,0.1 -0.6,0.1 -0.9,0.1 -0.5,0 -1,-0.1 -1.4,-0.2 -0.4,-0.1 -0.8,-0.4 -1.1,-0.6 -0.3,-0.3 -0.5,-0.6 -0.7,-1.1 -0.2,-0.4 -0.2,-0.9 -0.2,-1.5 0,-0.5 0,-0.9 0.1,-1.4 0.1,-0.5 0.2,-1 0.4,-1.4 0.2,-0.5 0.4,-0.9 0.7,-1.3 0.3,-0.4 0.6,-0.8 1,-1.1 0.4,-0.3 0.8,-0.6 1.3,-0.7 0.5,-0.2 1.1,-0.3 1.7,-0.3 0.3,0 0.7,0 1,0.1 0.3,0.1 0.6,0.2 0.8,0.3 0.2,0.1 0.4,0.2 0.5,0.3 0.1,-0.1 0.2,0 0.2,0.1 z"
   class="st2"
   inkscape:connector-curvature="0" />
			<path
   style="fill:#fcfdfb;stroke-width:0.79406065"
   id="path15"
   d="m 142.9,97.2 c 0,0 0,0.1 0,0.2 0,0.1 0,0.2 0,0.2 0,0.1 0,0.2 -0.1,0.3 0,0.1 -0.1,0.2 -0.1,0.3 0,0.1 -0.1,0.1 -0.1,0.2 -0.1,0.1 -0.1,0.1 -0.2,0.1 H 139 l -0.5,2.3 h 2.9 c 0.1,0 0.1,0 0.1,0.1 0,0 0,0.1 0,0.2 0,0 0,0.1 0,0.2 0,0.1 0,0.2 0,0.2 0,0 0,0.2 -0.1,0.3 0,0.1 -0.1,0.2 -0.1,0.3 0,0.1 -0.1,0.1 -0.1,0.2 0,0 -0.1,0.1 -0.2,0.1 h -2.9 l -0.5,2.7 h 3.4 c 0.1,0 0.1,0 0.1,0.1 0,0.1 0,0.1 0,0.2 0,0 0,0.1 0,0.2 0,0.1 0,0.2 0,0.2 0,0.1 0,0.2 -0.1,0.3 0,0.1 -0.1,0.2 -0.1,0.3 0,0.1 -0.1,0.1 -0.1,0.2 0,0 -0.1,0.1 -0.2,0.1 h -4.7 c -0.1,0 -0.1,0 -0.2,0 -0.1,0 -0.1,-0.1 -0.2,-0.1 0,-0.1 -0.1,-0.1 -0.1,-0.2 0,-0.1 0,-0.2 0,-0.3 l 1.7,-8.2 c 0,-0.2 0.1,-0.4 0.3,-0.5 0.1,-0.1 0.3,-0.1 0.4,-0.1 h 4.7 c 0.4,-0.4 0.4,-0.3 0.4,-0.1 z"
   class="st2"
   inkscape:connector-curvature="0" />
		</g>
</svg>