<?xml version="1.0" encoding="UTF-8" standalone="no"?>
<svg
   xmlns:dc="http://purl.org/dc/elements/1.1/"
   xmlns:cc="http://creativecommons.org/ns#"
   xmlns:rdf="http://www.w3.org/1999/02/22-rdf-syntax-ns#"
   xmlns:svg="http://www.w3.org/2000/svg"
   xmlns="http://www.w3.org/2000/svg"
   xml:space="preserve"
   style="enable-background:new 0 0 28.3 28.3;"
   viewBox="0 0 28.3 28.3"
   y="0px"
   x="0px"
   id="Layer_1"
   version="1.1"><metadata
   id="metadata14"><rdf:RDF><cc:Work
       rdf:about=""><dc:format>image/svg+xml</dc:format><dc:type
         rdf:resource="http://purl.org/dc/dcmitype/StillImage" /><dc:title></dc:title></cc:Work></rdf:RDF></metadata><defs
   id="defs12" />
<style
   id="style2"
   type="text/css">
	.st0{fill:#6ABF4B;}
	.st1{fill:#FFFFFF;}
</style>
<rect
   style="fill:#6abf4b"
   x="0"
   ry="2.5013902"
   height="28.299999"
   width="28.299999"
   class="st0"
   y="0"
   id="rect4529_00000061449998730043243630000000670997949188021154_" />
<g
   style="stroke-width:1.12349749"
   transform="matrix(0.89007769,0,0,0.89007769,-0.12691039,2.7370656)"
   id="g7">
	<path
   style="fill:#ffffff;stroke-width:1.12349749"
   id="path5"
   d="m 28,0 c -1.7,1.4 -3.4,3 -5.2,4.8 -3.9,4 -7.1,8.1 -9.6,12.3 l -0.7,-1.5 c -1.4,-3.1 -2.7,-4.7 -3.8,-4.7 -1.3,0 -2.8,0.8 -4.4,2.5 1,0.3 1.8,1 2.6,2 0.8,1 1.6,2.5 2.5,4.6 l 0.6,1.5 c 0.7,1.6 1.1,2.7 1.3,3.4 2.3,-1.9 4.1,-2.2 4.1,-2.2 2,-4.3 5.4,-10 9.2,-14.9 1.3,-1.6 2.5,-3.1 3.7,-4.4 V 0 Z"
   class="st1" />
</g>
</svg>