<?xml version="1.0" encoding="UTF-8" standalone="no"?>
<svg
   xmlns:dc="http://purl.org/dc/elements/1.1/"
   xmlns:cc="http://creativecommons.org/ns#"
   xmlns:rdf="http://www.w3.org/1999/02/22-rdf-syntax-ns#"
   xmlns:svg="http://www.w3.org/2000/svg"
   xmlns="http://www.w3.org/2000/svg"
   xmlns:sodipodi="http://sodipodi.sourceforge.net/DTD/sodipodi-0.dtd"
   xmlns:inkscape="http://www.inkscape.org/namespaces/inkscape"
   xml:space="preserve"
   style="enable-background:new 0 0 99.2 28.3;"
   viewBox="0 0 99.2 28.3"
   y="0px"
   x="0px"
   id="Layer_1"
   version="1.1"
   sodipodi:docname="Warning.svg"
   inkscape:version="0.92.4 (5da689c313, 2019-01-14)"><sodipodi:namedview
   pagecolor="#ffffff"
   bordercolor="#666666"
   borderopacity="1"
   objecttolerance="10"
   gridtolerance="10"
   guidetolerance="10"
   inkscape:pageopacity="0"
   inkscape:pageshadow="2"
   inkscape:window-width="1680"
   inkscape:window-height="987"
   id="namedview2181"
   showgrid="false"
   inkscape:zoom="3.0342743"
   inkscape:cx="-9.1674856"
   inkscape:cy="23.462581"
   inkscape:window-x="-8"
   inkscape:window-y="421"
   inkscape:window-maximized="1"
   inkscape:current-layer="Layer_1" /><metadata
   id="metadata35"><rdf:RDF><cc:Work
       rdf:about=""><dc:format>image/svg+xml</dc:format><dc:type
         rdf:resource="http://purl.org/dc/dcmitype/StillImage" /><dc:title></dc:title></cc:Work></rdf:RDF></metadata><defs
   id="defs33" />
<style
   id="style2"
   type="text/css">
	.st0{fill:#F88D2A;}
	.st1{enable-background:new    ;}
</style>
<g
   id="g6">
	<g
   transform="translate(-69.793098,-87.468681)"
   id="layer1_00000145049120728029877890000005715717150863982014_">
		
			<rect
   style="fill:#f88d2a"
   ry="2.854738"
   height="28.299999"
   width="99.199997"
   class="st0"
   y="87.5"
   x="69.800003"
   id="rect4529_00000164480177034372021570000007022231302001602472_" />
	</g>
</g>


<g
   style="stroke-width:0.93160772;enable-background:new"
   transform="matrix(1.0734132,0,0,1.0734132,-4.9998151,-0.9538075)"
   id="g28"
   class="st1">
	<path
   style="stroke-width:0.93160772"
   id="path14"
   d="m 42.1,18.4 c 0,0.1 -0.1,0.2 -0.1,0.3 -0.1,0.1 -0.1,0.1 -0.2,0.2 -0.1,0 -0.2,0.1 -0.4,0.1 -0.2,0 -0.4,0 -0.6,0 -0.3,0 -0.5,0 -0.7,0 -0.2,0 -0.3,0 -0.4,-0.1 -0.1,0 -0.2,-0.1 -0.2,-0.2 0,-0.1 -0.1,-0.2 -0.1,-0.3 l -1.5,-6 v 0 l -1.4,6 c 0,0.1 -0.1,0.2 -0.1,0.3 0,0.1 -0.1,0.1 -0.2,0.2 -0.1,0 -0.2,0.1 -0.4,0.1 -0.2,0 -0.4,0 -0.6,0 -0.3,0 -0.5,0 -0.7,0 -0.2,0 -0.3,0 -0.4,-0.1 -0.1,0 -0.2,-0.1 -0.2,-0.2 0,-0.1 -0.1,-0.2 -0.1,-0.3 l -2.1,-8.2 c 0,-0.2 -0.1,-0.3 -0.1,-0.4 0,-0.1 0,-0.2 0.1,-0.2 0.1,0 0.2,-0.1 0.3,-0.1 0.1,0 0.3,0 0.6,0 0.2,0 0.4,0 0.5,0 0.1,0 0.2,0 0.3,0.1 0.1,0 0.1,0.1 0.1,0.1 0,0.1 0,0.1 0.1,0.2 l 1.7,7.2 v 0 L 37,9.9 c 0,-0.1 0,-0.2 0.1,-0.2 0,-0.1 0.1,-0.1 0.2,-0.1 0.1,0 0.2,-0.1 0.3,-0.1 0.1,0 0.3,0 0.5,0 0.2,0 0.4,0 0.6,0 0.1,0 0.2,0 0.3,0.1 0.1,0 0.1,0.1 0.2,0.1 C 39,9.7 39,9.8 39,9.9 l 1.8,7.2 v 0 l 1.7,-7.2 c 0,-0.1 0,-0.1 0.1,-0.2 0,-0.1 0.1,-0.1 0.1,-0.1 0,0 0.2,-0.1 0.3,-0.1 0.1,0 0.3,0 0.5,0 0.2,0 0.4,0 0.5,0 0.1,0 0.2,0 0.3,0.1 0.1,0.1 0.1,0.1 0.1,0.2 0,0.1 0,0.2 -0.1,0.4 z"
   inkscape:connector-curvature="0" />
	<path
   style="stroke-width:0.93160772"
   id="path16"
   d="m 52.7,18.2 c 0.1,0.2 0.1,0.3 0.1,0.4 0,0.1 0,0.2 -0.1,0.2 -0.1,0.1 -0.1,0.1 -0.3,0.1 -0.1,0 -0.3,0 -0.6,0 -0.2,0 -0.4,0 -0.6,0 -0.1,0 -0.2,0 -0.3,0 -0.1,0 -0.1,-0.1 -0.2,-0.1 0,0 -0.1,-0.1 -0.1,-0.2 L 50,16.7 H 46.5 L 46,18.6 c 0,0.1 0,0.1 -0.1,0.2 0,0 -0.1,0.1 -0.2,0.1 -0.1,0 -0.2,0 -0.3,0.1 -0.1,0 -0.3,0 -0.5,0 -0.2,0 -0.4,0 -0.5,0 -0.1,0 -0.2,0 -0.3,-0.1 C 44,18.8 44,18.8 44,18.7 c 0,-0.1 0.1,-0.2 0.1,-0.4 L 47,10 c 0,-0.1 0.1,-0.1 0.1,-0.2 0,-0.1 0.1,-0.1 0.2,-0.1 0.1,0 0.2,0 0.4,-0.1 0.2,-0.1 0.3,0 0.6,0 0.3,0 0.5,0 0.7,0 0.2,0 0.3,0 0.4,0.1 0.1,0 0.2,0.1 0.2,0.1 0,0 0.1,0.1 0.1,0.2 z m -4.3,-6.9 v 0 l -1.3,4 h 2.7 z"
   inkscape:connector-curvature="0" />
	<path
   style="stroke-width:0.93160772"
   id="path18"
   d="m 61,18.6 c 0,0.1 0,0.1 0,0.1 0,0 -0.1,0.1 -0.1,0.1 -0.1,0 -0.2,0 -0.3,0.1 -0.1,0 -0.3,0 -0.6,0 -0.2,0 -0.4,0 -0.5,0 -0.1,0 -0.2,0 -0.3,-0.1 -0.1,0 -0.1,-0.1 -0.1,-0.1 0,0 -0.1,-0.1 -0.1,-0.1 L 58.2,16.5 C 58.1,16.3 58,16.1 57.9,15.9 57.8,15.7 57.7,15.6 57.6,15.4 57.5,15.3 57.3,15.2 57.2,15.1 57,15 56.9,15 56.7,15 h -0.6 v 3.6 c 0,0 0,0.1 0,0.1 0,0 -0.1,0.1 -0.2,0.1 -0.1,0 -0.2,0 -0.3,0.1 -0.1,0.1 -0.3,0 -0.5,0 -0.2,0 -0.3,0 -0.5,0 -0.1,0 -0.2,0 -0.3,-0.1 -0.1,0 -0.1,-0.1 -0.2,-0.1 0,0 0,-0.1 0,-0.1 v -8.5 c 0,-0.2 0.1,-0.4 0.2,-0.5 0.1,-0.1 0.2,-0.1 0.4,-0.1 H 57 c 0.2,0 0.5,0 0.6,0 0.1,0 0.3,0 0.4,0 0.4,0.1 0.7,0.1 1,0.3 0.3,0.2 0.6,0.3 0.8,0.5 0.2,0.2 0.4,0.5 0.5,0.7 0.1,0.3 0.2,0.6 0.2,1 0,0.3 0,0.6 -0.1,0.9 -0.1,0.3 -0.2,0.5 -0.4,0.7 -0.2,0.2 -0.3,0.4 -0.6,0.5 -0.2,0.1 -0.5,0.3 -0.8,0.4 0.1,0.1 0.3,0.2 0.4,0.2 0.1,0.1 0.2,0.2 0.3,0.4 0.1,0.1 0.2,0.3 0.3,0.5 0.1,0.2 0.2,0.4 0.3,0.6 l 0.8,1.9 c 0.1,0.2 0.1,0.3 0.1,0.4 0,0.1 0.2,0.1 0.2,0.1 z m -2.5,-6.3 c 0,-0.3 -0.1,-0.6 -0.2,-0.8 -0.1,-0.2 -0.4,-0.4 -0.7,-0.5 -0.1,0 -0.2,0 -0.3,-0.1 -0.1,0 -0.3,0 -0.5,0 h -0.9 v 2.7 h 1 c 0.3,0 0.5,0 0.7,-0.1 0.2,-0.1 0.4,-0.2 0.5,-0.3 0.1,-0.1 0.2,-0.3 0.3,-0.4 0.1,-0.2 0.1,-0.3 0.1,-0.5 z"
   inkscape:connector-curvature="0" />
	<path
   style="stroke-width:0.93160772"
   id="path20"
   d="m 70.1,18.2 c 0,0.1 0,0.2 -0.1,0.3 0,0.1 -0.1,0.2 -0.2,0.2 -0.1,0.1 -0.1,0.1 -0.2,0.1 -0.1,0 -0.2,0 -0.3,0 h -0.8 c -0.2,0 -0.3,0 -0.4,-0.1 -0.1,0 -0.2,-0.1 -0.3,-0.2 -0.1,-0.1 -0.2,-0.2 -0.3,-0.4 -0.1,-0.2 -0.2,-0.3 -0.3,-0.6 L 64.9,13.1 C 64.8,12.8 64.6,12.6 64.5,12.3 64.4,12 64.2,11.7 64.1,11.4 v 0 c 0,0.3 0,0.7 0,1 0,0.3 0,0.7 0,1.1 v 4.9 c 0,0 0,0.1 0,0.1 0,0 -0.1,0.1 -0.1,0.1 0,0 -0.2,0 -0.3,0.1 -0.1,0.1 -0.3,0 -0.4,0 -0.2,0 -0.3,0 -0.4,0 -0.1,0 -0.2,0 -0.3,-0.1 -0.1,0 -0.1,-0.1 -0.1,-0.1 0,0 0,-0.1 0,-0.1 V 9.9 c 0,-0.2 0.1,-0.4 0.2,-0.5 0.1,-0.1 0.3,-0.2 0.5,-0.2 h 1 c 0.2,0 0.3,0 0.5,0 0.1,0 0.2,0.1 0.3,0.2 0.1,0.1 0.2,0.2 0.3,0.3 0.1,0.1 0.2,0.3 0.3,0.5 l 1.8,3.4 c 0.1,0.2 0.2,0.4 0.3,0.6 0.1,0.2 0.2,0.4 0.3,0.6 0.1,0.2 0.2,0.4 0.3,0.6 0.1,0.2 0.2,0.4 0.3,0.6 v 0 c 0,-0.3 0,-0.7 0,-1.1 0,-0.4 0,-0.7 0,-1.1 v -4 c 0,0 0,-0.1 0,-0.1 0,0 0.1,-0.1 0.1,-0.1 0.1,0 0.2,0 0.3,-0.1 0.1,0 0.3,0 0.4,0 0.2,0 0.3,0 0.4,0 0.1,0 0.2,0 0.3,0.1 0.1,0 0.1,0.1 0.1,0.1 0,0 0,0.1 0,0.1 v 8.4 z"
   inkscape:connector-curvature="0" />
	<path
   style="stroke-width:0.93160772"
   id="path22"
   d="m 74.1,18.6 c 0,0 0,0.1 0,0.1 0,0 -0.1,0.1 -0.2,0.1 -0.1,0 -0.2,0 -0.3,0.1 -0.1,0.1 -0.3,0 -0.5,0 -0.2,0 -0.3,0 -0.5,0 -0.1,0 -0.2,0 -0.3,-0.1 -0.1,0 -0.1,-0.1 -0.2,-0.1 -0.1,0 0,-0.1 0,-0.1 V 9.7 c 0,0 0,-0.1 0,-0.1 0,0 0.1,-0.1 0.2,-0.1 0.1,0 0.2,0 0.3,-0.1 0.1,0 0.3,0 0.5,0 0.2,0 0.3,0 0.5,0 0.1,0 0.2,0 0.3,0.1 0.1,0 0.1,0.1 0.2,0.1 0,0 0,0.1 0,0.1 z"
   inkscape:connector-curvature="0" />
	<path
   style="stroke-width:0.93160772"
   id="path24"
   d="m 83.9,18.2 c 0,0.1 0,0.2 -0.1,0.3 -0.1,0.1 -0.1,0.2 -0.2,0.2 -0.1,0.1 -0.1,0.1 -0.2,0.1 -0.1,0 -0.2,0 -0.3,0 h -0.8 c -0.2,0 -0.3,0 -0.4,-0.1 -0.1,0 -0.2,-0.1 -0.3,-0.2 C 81.5,18.4 81.4,18.3 81.3,18.1 81.2,17.9 81.1,17.8 81,17.5 L 78.7,13.1 C 78.6,12.8 78.4,12.6 78.3,12.3 78.2,12 78,11.7 77.9,11.4 v 0 c 0,0.3 0,0.7 0,1 0,0.3 0,0.7 0,1.1 v 4.9 c 0,0 0,0.1 0,0.1 0,0 -0.1,0.1 -0.1,0.1 0,0 -0.2,0 -0.3,0.1 -0.1,0.1 -0.3,0 -0.4,0 -0.2,0 -0.3,0 -0.4,0 -0.1,0 -0.2,0 -0.3,-0.1 -0.1,0 -0.1,-0.1 -0.1,-0.1 0,0 0,-0.1 0,-0.1 V 9.9 c 0,-0.2 0.1,-0.4 0.2,-0.5 0.1,-0.1 0.3,-0.2 0.5,-0.2 h 1 c 0.2,0 0.3,0 0.5,0 0.1,0 0.2,0.1 0.3,0.2 0.1,0.1 0.1,0.5 0.2,0.6 0.1,0.1 0.2,0.3 0.3,0.5 l 1.8,3.4 c 0.1,0.2 0.2,0.4 0.3,0.6 0.1,0.2 0.2,0.4 0.3,0.6 0.1,0.2 0.2,0.4 0.3,0.6 0.1,0.2 0.2,0.4 0.3,0.6 v 0 c 0,-0.3 0,-0.7 0,-1.1 0,-0.4 0,-0.7 0,-1.1 V 9.8 c 0,0 0,-0.1 0,-0.1 0,0 0.1,-0.1 0.1,-0.1 0.1,0 0.2,0 0.3,-0.1 0.1,-0.1 0.3,0 0.4,0 0.2,0 0.3,0 0.4,0 0.1,0 0.2,0 0.3,0.1 0.1,0 0.1,0.1 0.1,0.1 0,0 0,0.1 0,0.1 z"
   inkscape:connector-curvature="0" />
	<path
   style="stroke-width:0.93160772"
   id="path26"
   d="m 93.5,10.9 c 0,0.1 0,0.3 0,0.4 0,0.1 0,0.2 -0.1,0.2 0,0.1 0,0.1 -0.1,0.1 0,0 -0.1,0 -0.1,0 -0.1,0 -0.2,0 -0.3,-0.1 -0.1,-0.1 -0.3,-0.2 -0.6,-0.3 -0.2,-0.1 -0.5,-0.2 -0.8,-0.3 -0.3,-0.1 -0.7,-0.1 -1.1,-0.1 -0.5,0 -0.9,0.1 -1.2,0.2 -0.4,0.2 -0.7,0.4 -0.9,0.7 -0.3,0.3 -0.5,0.6 -0.6,1 -0.1,0.4 -0.2,0.9 -0.2,1.3 0,0.5 0.1,1 0.2,1.4 0.1,0.4 0.3,0.8 0.6,1 0.3,0.2 0.6,0.5 0.9,0.6 0.3,0.1 0.8,0.2 1.2,0.2 0.2,0 0.4,0 0.6,-0.1 0.2,0 0.4,-0.1 0.6,-0.2 V 15 h -1.8 c -0.1,0 -0.2,-0.1 -0.2,-0.2 0,-0.1 -0.1,-0.3 -0.1,-0.6 0,-0.1 0,-0.2 0,-0.3 0,-0.1 0,-0.2 0.1,-0.2 0,-0.1 0.1,-0.1 0.1,-0.1 0,0 0.1,0 0.1,0 H 93 c 0.1,0 0.1,0 0.2,0 0.1,0 0.1,0.1 0.2,0.1 0,0.1 0.1,0.1 0.1,0.2 0,0.1 0,0.2 0,0.3 v 3.7 c 0,0.1 0,0.3 -0.1,0.4 -0.1,0.1 -0.2,0.2 -0.3,0.3 -0.2,0.1 -0.4,0.1 -0.6,0.2 -0.2,0.1 -0.5,0.1 -0.7,0.2 -0.3,0 -0.5,0 -0.8,0 -0.3,0 -0.5,0 -0.8,0 -0.8,0 -1.4,-0.1 -2,-0.3 -0.6,-0.2 -1.1,-0.5 -1.5,-0.9 -0.4,-0.4 -0.7,-0.9 -0.9,-1.5 -0.2,-0.6 -0.3,-1.3 -0.3,-2 0,-0.8 0.1,-1.5 0.3,-2.1 0.2,-0.6 0.6,-1.1 1,-1.6 0.4,-0.4 0.9,-0.8 1.5,-1 0.6,-0.2 1.3,-0.3 2,-0.3 0.4,0 0.8,0 1.1,0.1 0.3,0.1 0.6,0.1 0.9,0.2 0.2,0.1 0.5,0.2 0.6,0.3 0.2,0.1 0.3,0.2 0.3,0.2 0,0 0.1,0.2 0.1,0.3 0.2,0.1 0.2,0.3 0.2,0.5 z"
   inkscape:connector-curvature="0" />
</g>
<g
   id="g2141"
   transform="matrix(0.84577993,0,0,0.84577993,1.375507,2.5103986)"
   style="stroke-width:1.18234062"><path
     style="stroke-width:1.18234062"
     id="sign_border"
     d="M 31.213495,24.779489 18.108933,2.0797168 C 17.975044,1.8488407 17.730321,1.7103125 17.467119,1.7103125 c -0.263194,0 -0.507916,0.1431437 -0.641849,0.3694043 L 3.7207309,24.779489 c -0.133909,0.230876 -0.133909,0.512545 0,0.738805 0.133907,0.230876 0.378636,0.3694 0.641836,0.3694 H 30.571646 c 0.263194,0 0.507959,-0.143143 0.641849,-0.3694 0.133898,-0.230877 0.133898,-0.512548 0,-0.738805 z"
     inkscape:connector-curvature="0" /><polygon
     style="overflow:visible;fill:#f6bd16;fill-opacity:1;stroke:none;stroke-width:25.60548401"
     id="polygon7"
     transform="matrix(0.04617529,0,0,0.04598664,3.6249129,1.8041974)"
     points="555.875,491.5 43.875,491.5 299.875,48.2 " /><g
     style="stroke-width:0.79506034"
     id="g12"
     transform="matrix(1.4871081,0,0,1.4871081,-7.5915621,-7.5804912)"><path
       style="stroke-width:0.79506034"
       d="m 16.950605,17.3 h -0.3 c 0,-0.5 -0.1,-1.1 -0.3,-1.8 l -0.3,-1.5 c -0.2,-0.9 -0.3,-1.5 -0.3,-1.9 0,-0.3 0.1,-0.6 0.3,-0.8 0.2,-0.2 0.5,-0.3 0.8,-0.3 0.3,0 0.6,0.1 0.8,0.3 0.2,0.2 0.3,0.5 0.3,0.8 0,0.3 -0.1,1 -0.3,1.9 l -0.4,1.5 c -0.1,0.4 -0.2,1.1 -0.3,1.8 z m -0.1,0.9 c 0.3,0 0.6,0.1 0.8,0.3 0.2,0.2 0.3,0.5 0.3,0.8 0,0.3 -0.1,0.6 -0.3,0.8 -0.2,0.2 -0.5,0.3 -0.8,0.3 -0.3,0 -0.6,-0.1 -0.8,-0.3 -0.2,-0.2 -0.3,-0.5 -0.3,-0.8 0,-0.3 0.1,-0.6 0.3,-0.8 0.2,-0.2 0.5,-0.3 0.8,-0.3 z"
       id="path10"
       inkscape:connector-curvature="0" /></g></g></svg>