<?xml version="1.0" encoding="UTF-8" standalone="no"?>
<svg
   xmlns:dc="http://purl.org/dc/elements/1.1/"
   xmlns:cc="http://creativecommons.org/ns#"
   xmlns:rdf="http://www.w3.org/1999/02/22-rdf-syntax-ns#"
   xmlns:svg="http://www.w3.org/2000/svg"
   xmlns="http://www.w3.org/2000/svg"
   xmlns:sodipodi="http://sodipodi.sourceforge.net/DTD/sodipodi-0.dtd"
   xmlns:inkscape="http://www.inkscape.org/namespaces/inkscape"
   xml:space="preserve"
   style="enable-background:new 0 0 99.2 28.3;"
   viewBox="0 0 99.2 28.3"
   y="0px"
   x="0px"
   id="Layer_1"
   version="1.1"
   sodipodi:docname="Danger.svg"
   inkscape:version="0.92.4 (5da689c313, 2019-01-14)"><sodipodi:namedview
   pagecolor="#ffffff"
   bordercolor="#666666"
   borderopacity="1"
   objecttolerance="10"
   gridtolerance="10"
   guidetolerance="10"
   inkscape:pageopacity="0"
   inkscape:pageshadow="2"
   inkscape:window-width="1680"
   inkscape:window-height="987"
   id="namedview1577"
   showgrid="false"
   inkscape:zoom="6.0685486"
   inkscape:cx="41.432047"
   inkscape:cy="-8.119374"
   inkscape:window-x="-8"
   inkscape:window-y="421"
   inkscape:window-maximized="1"
   inkscape:current-layer="Layer_1" /><metadata
   id="metadata33"><rdf:RDF><cc:Work
       rdf:about=""><dc:format>image/svg+xml</dc:format><dc:type
         rdf:resource="http://purl.org/dc/dcmitype/StillImage" /><dc:title></dc:title></cc:Work></rdf:RDF></metadata><defs
   id="defs31" />
<style
   id="style2"
   type="text/css">
	.st0{fill:#EC1E24;}
	.st1{fill:#FFFFFF;}
	.st2{enable-background:new    ;}
</style>
<g
   id="g6">
	<g
   transform="translate(-69.793098,-87.468681)"
   id="layer1_00000145049120728029877890000005715717150863982014_">
		
			<rect
   style="fill:#ec1e24"
   ry="3.0485048"
   height="28.299999"
   width="99.199997"
   class="st0"
   y="87.5"
   x="69.800003"
   id="rect4529_00000164480177034372021570000007022231302001602472_" />
	</g>
</g>


<g
   style="stroke-width:0.90075856"
   transform="matrix(1.1101754,0,0,1.1101754,-6.1205593,-1.6386808)"
   id="g850"><g
     style="stroke-width:0.81136602;enable-background:new"
     class="st2"
     id="g26">
	<path
   style="fill:#ffffff;stroke-width:0.90075856"
   class="st1"
   d="m 45.2,14.1 c 0,0.9 -0.1,1.6 -0.3,2.2 -0.2,0.6 -0.5,1.1 -1,1.5 -0.4,0.4 -0.9,0.7 -1.5,0.9 -0.6,0.2 -1.3,0.3 -2.2,0.3 H 38 c -0.2,0 -0.3,0 -0.4,-0.1 -0.1,-0.1 -0.2,-0.2 -0.2,-0.5 V 10.2 C 37.4,10 37.5,9.8 37.6,9.7 37.7,9.6 37.8,9.6 38,9.6 h 2.4 c 0.8,0 1.5,0.1 2.1,0.3 0.6,0.2 1.1,0.5 1.5,0.9 0.4,0.4 0.7,0.9 0.9,1.4 0.2,0.5 0.3,1.2 0.3,1.9 z m -1.9,0.1 C 43.3,13.8 43.2,13.3 43.1,13 43,12.6 42.8,12.3 42.6,12 42.4,11.7 42.1,11.5 41.7,11.3 41.3,11.1 40.9,11.1 40.3,11.1 h -1 v 6.4 h 1 c 0.5,0 1,-0.1 1.3,-0.2 0.4,-0.1 0.7,-0.3 0.9,-0.6 0.2,-0.3 0.4,-0.6 0.5,-1 0.2,-0.5 0.3,-1 0.3,-1.5 z"
   id="path14"
   inkscape:connector-curvature="0" />
	<path
   style="fill:#ffffff;stroke-width:0.90075856"
   class="st1"
   d="m 54.2,18.3 c 0.1,0.2 0.1,0.3 0.1,0.4 0,0.1 0,0.2 -0.1,0.2 0,0.1 -0.1,0.1 -0.3,0.1 -0.1,0 -0.3,0 -0.6,0 -0.2,0 -0.4,0 -0.6,0 -0.1,0 -0.2,0 -0.3,0 -0.1,0 -0.1,-0.1 -0.2,-0.1 -0.1,0 -0.1,-0.1 -0.1,-0.2 L 51.5,16.8 H 48 l -0.6,1.8 c 0,0.1 0,0.1 -0.1,0.2 0,0 -0.1,0.1 -0.2,0.1 -0.1,0 0,0.1 -0.1,0.1 -0.1,0 -0.3,0 -0.5,0 -0.2,0 -0.4,0 -0.5,0 -0.1,0 -0.2,0 -0.3,-0.1 -0.1,-0.1 -0.1,-0.1 -0.1,-0.2 0,-0.1 0.1,-0.2 0.1,-0.4 L 48.6,10 c 0,-0.1 0.1,-0.1 0.1,-0.2 0,-0.1 0.1,-0.1 0.2,-0.1 0.1,0 0.2,0 0.4,-0.1 0.2,-0.1 0.3,0 0.6,0 0.3,0 0.5,0 0.7,0 0.2,0 0.3,0 0.4,0.1 0.1,0 0.2,0.1 0.2,0.1 0,0 0.1,0.1 0.1,0.2 z m -4.4,-6.9 v 0 l -1.3,4 h 2.7 z"
   id="path16"
   inkscape:connector-curvature="0" />
	<path
   style="fill:#ffffff;stroke-width:0.90075856"
   class="st1"
   d="m 63.2,18.3 c 0,0.1 0,0.2 -0.1,0.3 0,0.1 -0.1,0.2 -0.2,0.2 -0.1,0.1 -0.1,0.1 -0.2,0.1 -0.1,0 -0.2,0 -0.3,0 h -0.8 c -0.2,0 -0.3,0 -0.4,-0.1 -0.1,0 -0.2,-0.1 -0.3,-0.2 C 60.8,18.5 60.7,18.4 60.6,18.2 60.5,18 60.4,17.8 60.3,17.6 L 58,13.2 c -0.1,-0.3 -0.3,-0.5 -0.4,-0.8 -0.1,-0.3 -0.3,-0.6 -0.4,-0.9 v 0 c 0,0.3 0,0.7 0,1 0,0.3 0,0.7 0,1.1 v 4.9 c 0,0 0,0.1 0,0.1 0,0 -0.1,0.1 -0.1,0.1 -0.1,0 -0.2,0 -0.3,0.1 -0.1,0 -0.3,0 -0.4,0 -0.2,0 -0.3,0 -0.4,0 -0.1,0 -0.2,0 -0.3,-0.1 -0.1,0 -0.1,-0.1 -0.1,-0.1 0,0 0,-0.1 0,-0.1 V 10 c 0,-0.2 0.1,-0.4 0.2,-0.5 0.1,-0.1 0.3,-0.2 0.5,-0.2 h 1 c 0.2,0 0.3,0 0.5,0 0.1,0 0.2,0.1 0.3,0.2 0.1,0.1 0.2,0.2 0.3,0.3 0.1,0.1 0.2,0.3 0.3,0.5 l 1.8,3.4 c 0.1,0.2 0.2,0.4 0.3,0.6 0.1,0.2 0.2,0.4 0.3,0.6 0.1,0.2 0.2,0.4 0.3,0.6 0.1,0.2 0.2,0.4 0.3,0.6 v 0 c 0,-0.3 0,-0.7 0,-1.1 0,-0.4 0,-0.7 0,-1.1 v -4 c 0,0 0,-0.1 0,-0.1 0,0 0.1,-0.1 0.1,-0.1 0.1,0 0.2,0 0.3,-0.1 0.1,0 0.3,0 0.4,0 0.2,0 0.3,0 0.4,0 0.1,0 0.2,0 0.3,0.1 0.1,0 0.1,0.1 0.1,0.1 0,0 0,0.1 0,0.1 v 8.4 z"
   id="path18"
   inkscape:connector-curvature="0" />
	<path
   style="fill:#ffffff;stroke-width:0.90075856"
   class="st1"
   d="m 72.8,11 c 0,0.1 0,0.3 0,0.4 0,0.1 0,0.2 -0.1,0.2 0,0.1 0,0.1 -0.1,0.1 0,0 -0.1,0 -0.1,0 -0.1,0 -0.2,0 -0.3,-0.1 -0.1,-0.1 -0.3,-0.2 -0.6,-0.3 -0.2,-0.1 -0.5,-0.2 -0.8,-0.3 -0.3,0 -0.6,0 -1.1,0 -0.5,0 -0.9,0.1 -1.2,0.2 -0.4,0.2 -0.7,0.4 -0.9,0.7 -0.3,0.3 -0.5,0.6 -0.6,1 -0.1,0.4 -0.2,0.9 -0.2,1.3 0,0.5 0.1,1 0.2,1.4 0.1,0.4 0.3,0.8 0.6,1 0.3,0.2 0.6,0.5 0.9,0.6 0.3,0.1 0.8,0.2 1.2,0.2 0.2,0 0.4,0 0.6,-0.1 0.2,0 0.4,-0.1 0.6,-0.2 v -2.2 h -1.8 c -0.1,0 -0.2,-0.1 -0.2,-0.2 0,-0.1 -0.1,-0.3 -0.1,-0.6 0,-0.1 0,-0.2 0,-0.3 0,-0.1 0,-0.2 0.1,-0.2 0,-0.1 0.1,-0.1 0.1,-0.1 0,0 0.1,0 0.1,0 h 3.2 c 0.1,0 0.1,0 0.2,0 0.1,0 0.1,0.1 0.2,0.1 0,0.1 0.1,0.1 0.1,0.2 0,0.1 0,0.2 0,0.3 V 18 c 0,0.1 0,0.3 -0.1,0.4 -0.1,0.1 -0.2,0.2 -0.3,0.3 -0.2,0.1 -0.4,0.1 -0.6,0.2 -0.2,0.1 -0.5,0.1 -0.7,0.2 -0.2,0 -0.5,0.1 -0.8,0.1 -0.3,0 -0.5,0 -0.8,0 -0.8,0 -1.4,-0.1 -2,-0.3 -0.6,-0.2 -1.1,-0.5 -1.5,-0.9 -0.4,-0.4 -0.7,-0.9 -0.9,-1.5 -0.2,-0.6 -0.3,-1.3 -0.3,-2 0,-0.8 0.1,-1.5 0.3,-2.1 0.2,-0.6 0.6,-1.1 1,-1.6 0.4,-0.4 0.9,-0.8 1.5,-1 0.6,-0.2 1.3,-0.3 2,-0.3 0.4,0 0.8,0 1.1,0.1 0.3,0.1 0.6,0.1 0.9,0.2 0.2,0.1 0.5,0.2 0.6,0.3 0.2,0.1 0.3,0.2 0.3,0.2 0,0 0.1,0.2 0.1,0.3 0.2,0 0.2,0.2 0.2,0.4 z"
   id="path20"
   inkscape:connector-curvature="0" />
	<path
   style="fill:#ffffff;stroke-width:0.90075856"
   class="st1"
   d="m 80.3,18.2 c 0,0.1 0,0.3 0,0.4 0,0.1 0,0.2 -0.1,0.2 -0.1,0 -0.1,0.1 -0.1,0.1 0,0 -0.1,0 -0.1,0 h -4.7 c -0.2,0 -0.3,0 -0.4,-0.1 -0.1,-0.1 -0.2,-0.2 -0.2,-0.5 V 10.1 C 74.7,9.9 74.8,9.7 74.9,9.6 75,9.5 75.1,9.5 75.3,9.5 H 80 c 0,0 0.1,0 0.1,0 0,0 0.1,0.1 0.1,0.1 0,0 0,0.1 0.1,0.2 0,0.1 0,0.2 0,0.4 0,0.1 0,0.3 0,0.3 0,0.1 0,0.2 -0.1,0.2 -0.1,0 0,0.3 0,0.3 0,0 -0.1,0 -0.1,0 h -3.4 v 2.3 h 2.8 c 0,0 0.1,0 0.1,0 0,0 0.1,0.1 0.1,0.1 0,0.1 0,0.1 0.1,0.2 0,0.1 0,0.2 0,0.3 0,0.1 0,0.3 0,0.3 0,0.1 0,0.2 -0.1,0.2 0,0.1 -0.1,0.1 -0.1,0.1 0,0 -0.1,0 -0.1,0 h -2.8 v 2.7 h 3.4 c 0,0 0.1,0 0.1,0 0,0 0.1,0.1 0.1,0.1 0,0.1 0,0.1 0.1,0.2 -0.1,0.5 -0.1,0.6 -0.1,0.7 z"
   id="path22"
   inkscape:connector-curvature="0" />
	<path
   style="fill:#ffffff;stroke-width:0.90075856"
   class="st1"
   d="m 89,18.7 c 0,0.1 0,0.1 0,0.1 0,0 -0.1,0.1 -0.1,0.1 -0.1,0 -0.2,0 -0.3,0.1 -0.1,0 -0.3,0 -0.6,0 -0.2,0 -0.4,0 -0.5,0 -0.1,0 -0.2,0 -0.3,-0.1 -0.1,-0.1 -0.1,-0.1 -0.1,-0.1 0,0 -0.1,0 -0.1,-0.1 L 86.2,16.6 C 86.1,16.4 86,16.2 85.9,16 85.8,15.8 85.7,15.7 85.6,15.5 85.5,15.4 85.3,15.3 85.2,15.2 85,15.1 84.9,15.1 84.7,15.1 h -0.6 v 3.6 c 0,0 0,0.1 0,0.1 0,0 -0.1,0.1 -0.2,0.1 -0.1,0 -0.2,0 -0.3,0.1 -0.1,0 -0.3,0 -0.5,0 -0.2,0 -0.3,0 -0.5,0 -0.1,0 -0.2,0 -0.3,-0.1 -0.1,-0.1 -0.1,-0.1 -0.2,-0.1 0,0 0,-0.1 0,-0.1 v -8.5 c 0,-0.2 0.1,-0.4 0.2,-0.5 0.1,-0.1 0.2,-0.1 0.4,-0.1 H 85 c 0.2,0 0.5,0 0.6,0 0.1,0 0.3,0 0.4,0 0.4,0.1 0.7,0.1 1,0.3 0.3,0.2 0.6,0.3 0.8,0.5 0.2,0.2 0.4,0.5 0.5,0.7 0.1,0.3 0.2,0.6 0.2,1 0,0.3 0,0.6 -0.1,0.9 -0.1,0.3 -0.2,0.5 -0.4,0.7 -0.2,0.2 -0.3,0.4 -0.6,0.5 -0.2,0.1 -0.5,0.3 -0.8,0.4 0.1,0.1 0.3,0.2 0.4,0.2 0.1,0.1 0.2,0.2 0.3,0.4 0.1,0.1 0.2,0.3 0.3,0.5 0.1,0.2 0.2,0.4 0.3,0.6 l 0.8,1.9 c 0.1,0.2 0.1,0.3 0.1,0.4 0.2,0 0.2,0.1 0.2,0.1 z m -2.5,-6.4 c 0,-0.3 -0.1,-0.6 -0.2,-0.8 -0.1,-0.2 -0.4,-0.4 -0.7,-0.5 -0.1,0 -0.2,0 -0.3,-0.1 -0.1,0 -0.3,0 -0.5,0 h -0.9 v 2.7 h 1 c 0.3,0 0.5,0 0.7,-0.1 0.2,-0.1 0.4,-0.2 0.5,-0.3 0.1,-0.1 0.2,-0.3 0.3,-0.4 0.1,-0.1 0.1,-0.3 0.1,-0.5 z"
   id="path24"
   inkscape:connector-curvature="0" />
</g></g>
<g
   id="g2141"
   transform="matrix(0.84577993,0,0,0.84577993,3.1014275,2.5103986)"
   style="stroke-width:1.18234062"><path
     style="stroke-width:1.18234062"
     id="sign_border"
     d="M 31.213495,24.779489 18.108933,2.0797168 C 17.975044,1.8488407 17.730321,1.7103125 17.467119,1.7103125 c -0.263194,0 -0.507916,0.1431437 -0.641849,0.3694043 L 3.7207309,24.779489 c -0.133909,0.230876 -0.133909,0.512545 0,0.738805 0.133907,0.230876 0.378636,0.3694 0.641836,0.3694 H 30.571646 c 0.263194,0 0.507959,-0.143143 0.641849,-0.3694 0.133898,-0.230877 0.133898,-0.512548 0,-0.738805 z"
     inkscape:connector-curvature="0" /><polygon
     style="overflow:visible;fill:#f6bd16;fill-opacity:1;stroke:none;stroke-width:25.60548401"
     id="polygon7"
     transform="matrix(0.04617529,0,0,0.04598664,3.6249129,1.8041974)"
     points="43.875,491.5 299.875,48.2 555.875,491.5 " /><g
     style="stroke-width:0.79506034"
     id="g12"
     transform="matrix(1.4871081,0,0,1.4871081,-7.5915621,-7.5804912)"><path
       style="stroke-width:0.79506034"
       d="m 16.950605,17.3 h -0.3 c 0,-0.5 -0.1,-1.1 -0.3,-1.8 l -0.3,-1.5 c -0.2,-0.9 -0.3,-1.5 -0.3,-1.9 0,-0.3 0.1,-0.6 0.3,-0.8 0.2,-0.2 0.5,-0.3 0.8,-0.3 0.3,0 0.6,0.1 0.8,0.3 0.2,0.2 0.3,0.5 0.3,0.8 0,0.3 -0.1,1 -0.3,1.9 l -0.4,1.5 c -0.1,0.4 -0.2,1.1 -0.3,1.8 z m -0.1,0.9 c 0.3,0 0.6,0.1 0.8,0.3 0.2,0.2 0.3,0.5 0.3,0.8 0,0.3 -0.1,0.6 -0.3,0.8 -0.2,0.2 -0.5,0.3 -0.8,0.3 -0.3,0 -0.6,-0.1 -0.8,-0.3 -0.2,-0.2 -0.3,-0.5 -0.3,-0.8 0,-0.3 0.1,-0.6 0.3,-0.8 0.2,-0.2 0.5,-0.3 0.8,-0.3 z"
       id="path10"
       inkscape:connector-curvature="0" /></g></g></svg>