<?xml version="1.0" encoding="UTF-8" standalone="no"?>
<svg
   xmlns:dc="http://purl.org/dc/elements/1.1/"
   xmlns:cc="http://creativecommons.org/ns#"
   xmlns:rdf="http://www.w3.org/1999/02/22-rdf-syntax-ns#"
   xmlns:svg="http://www.w3.org/2000/svg"
   xmlns="http://www.w3.org/2000/svg"
   xml:space="preserve"
   style="enable-background:new 0 0 28.3 28.3;"
   viewBox="0 0 28.3 28.3"
   y="0px"
   x="0px"
   id="Layer_1"
   version="1.1"><metadata
   id="metadata12"><rdf:RDF><cc:Work
       rdf:about=""><dc:format>image/svg+xml</dc:format><dc:type
         rdf:resource="http://purl.org/dc/dcmitype/StillImage" /><dc:title></dc:title></cc:Work></rdf:RDF></metadata><defs
   id="defs10" />
<style
   id="style2"
   type="text/css">
	.st0{fill:#194F90;}
	.st1{fill:#FFFFFF;}
</style>
<rect
   style="fill:#194f90"
   y="0"
   x="0"
   ry="2.3983049"
   rx="2.3983049"
   height="28.299999"
   width="28.299999"
   class="st0"
   id="rect4529_00000061449998730043243630000000670997949188021154_" />
<path
   id="path5"
   d="M4.8,8.1l4.7,2.7l4.7,2.7c0.2,0.1,0.4,0.4,0.4,0.6c0,0.3-0.1,0.5-0.4,0.6l-4.7,2.7l-4.7,2.7  c-0.2,0.1-0.5,0.1-0.7,0c-0.3-0.1-0.4-0.3-0.4-0.6v-5.5V8.8c0-0.3,0.1-0.5,0.4-0.6C4.3,8,4.6,8,4.8,8.1L4.8,8.1z M16.6,8.1l4.7,2.7  l4.7,2.7c0.2,0.1,0.4,0.4,0.4,0.6c0,0.3-0.1,0.5-0.4,0.6l-4.7,2.7l-4.7,2.7c-0.2,0.1-0.5,0.1-0.7,0c-0.2-0.1-0.4-0.4-0.4-0.6v-5.5  V8.7c0-0.3,0.1-0.5,0.4-0.6C16.1,8,16.3,8,16.6,8.1z"
   class="st1" />
</svg>