<?xml version="1.0" encoding="UTF-8" standalone="no"?>
<!-- Generator: Adobe Illustrator 27.8.0, SVG Export Plug-In . SVG Version: 6.00 Build 0)  -->

<svg
   xmlns:dc="http://purl.org/dc/elements/1.1/"
   xmlns:cc="http://creativecommons.org/ns#"
   xmlns:rdf="http://www.w3.org/1999/02/22-rdf-syntax-ns#"
   xmlns:svg="http://www.w3.org/2000/svg"
   xmlns="http://www.w3.org/2000/svg"
   xmlns:sodipodi="http://sodipodi.sourceforge.net/DTD/sodipodi-0.dtd"
   xmlns:inkscape="http://www.inkscape.org/namespaces/inkscape"
   version="1.1"
   id="Layer_1"
   x="0px"
   y="0px"
   viewBox="0 0 28.3 28.3"
   style="enable-background:new 0 0 28.3 28.3;"
   xml:space="preserve"
   sodipodi:docname="Tip.svg"
   inkscape:version="0.92.4 (5da689c313, 2019-01-14)"><metadata
   id="metadata16"><rdf:RDF><cc:Work
       rdf:about=""><dc:format>image/svg+xml</dc:format><dc:type
         rdf:resource="http://purl.org/dc/dcmitype/StillImage" /><dc:title></dc:title></cc:Work></rdf:RDF></metadata><defs
   id="defs14" /><sodipodi:namedview
   pagecolor="#ffffff"
   bordercolor="#666666"
   borderopacity="1"
   objecttolerance="10"
   gridtolerance="10"
   guidetolerance="10"
   inkscape:pageopacity="0"
   inkscape:pageshadow="2"
   inkscape:window-width="1680"
   inkscape:window-height="987"
   id="namedview12"
   showgrid="false"
   inkscape:zoom="23.586885"
   inkscape:cx="20.90402"
   inkscape:cy="9.1471629"
   inkscape:window-x="-8"
   inkscape:window-y="47"
   inkscape:window-maximized="1"
   inkscape:current-layer="Layer_1" />
<style
   type="text/css"
   id="style2">
	.st0{fill:#F88D2A;}
	.st1{fill:#FFFFFF;}
</style>
<rect
   id="rect4529_00000063604551412590299490000010309977182047121825_"
   y="0"
   class="st0"
   width="28.299999"
   height="28.299999"
   ry="2.0385592"
   x="0"
   style="fill:#ffffff;fill-opacity:1" />
<polygon
   class="st1"
   points="27.8,14.1 22.4,16.8 25.2,22.2 19.2,21.1 18.4,27.2 14.1,22.8 9.9,27.2 9.1,21.1 3.1,22.2 5.9,16.8   0.5,14.1 5.9,11.5 3.1,6.1 9.1,7.1 9.9,1.1 14.1,5.5 18.4,1.1 19.2,7.1 25.2,6.1 22.4,11.5 "
   id="polygon5" />
<g
   id="g9">
	<path
   class="st0"
   d="M14.4,16.5H14c0-0.7-0.2-1.7-0.5-2.7L13,11.7c-0.3-1.3-0.5-2.2-0.5-2.8c0-0.5,0.2-0.9,0.5-1.2   c0.3-0.3,0.7-0.5,1.2-0.5s0.9,0.2,1.2,0.5s0.5,0.7,0.5,1.2s-0.2,1.4-0.5,2.8l-0.5,2.1C14.6,14.6,14.4,15.5,14.4,16.5z M14.2,17.9   c0.4,0,0.8,0.2,1.1,0.5s0.5,0.7,0.5,1.1s-0.2,0.8-0.5,1.1s-0.7,0.5-1.1,0.5c-0.4,0-0.8-0.2-1.1-0.5s-0.5-0.7-0.5-1.1   s0.2-0.8,0.5-1.1C13.3,18.1,13.7,17.9,14.2,17.9z"
   id="path7" />
</g>
<path
   inkscape:connector-curvature="0"
   id="path3121"
   d="m 9.3435213,22.026426 v 0 L 4.9052441,17.604372 h 2.9263095 c 0.812879,0 1.5119677,0.682817 1.5119677,1.544467 z m 9.6732697,-4.373281 v 0 l -0.747856,0.178832 v 3.397829 c 0,0.79662 -0.699089,1.495695 -1.560735,1.495695 h -6.04778 v -3.576662 c 0,-1.544467 -1.2681314,-2.812556 -2.8288664,-2.812556 H 4.0923651 V 6.6467798 c 0,-0.8616499 0.6989974,-1.4956946 1.4956207,-1.4956946 H 5.9944709 V 3.8342234 H 5.5879858 c -0.3413708,0 -0.6339744,0.1138028 -0.9104136,0.1625755 -0.9266692,0.3576662 -1.625758,1.1542863 -1.8533385,2.0809665 0,0.1788334 -0.048402,0.4064395 -0.048402,0.5690144 V 17.0191 c 0,0 0,0 0,0 v 4.210706 c 0,1.560725 1.2681315,2.812557 2.8125194,2.812557 0,0 2.0810102,0 4.210788,0 h 4.9585529 v 0 h 1.950873 v 0 0 c 0,0 0,0 0,0 0.341371,0 0.699089,-0.113803 0.975436,-0.227606 0.861647,-0.276378 1.560735,-1.089256 1.788316,-2.015937 0,-0.227605 0.06484,-0.406438 0.06484,-0.569014 V 17.246705 Z M 12.96892,3.8342234 v 0 c -0.178814,0 -0.292604,0 -0.471417,0 0,0 0,0 0,0 H 9.4573116 V 5.1510852 H 12.96892 Z m 5.300015,2.8125564 v 0 4.2757372 l 1.26804,-1.0404833 V 6.6467798 c 0,-1.5444674 -1.26804,-2.8125564 -2.828775,-2.8125564 H 16.366737 V 5.1510852 H 16.7082 c 0.861646,0 1.560735,0.6340447 1.560735,1.4956946 z M 14.692212,6.4842049 v 0 c 0.520276,0 0.975528,-0.4064395 0.975528,-0.9754539 V 3.1351486 c 0,-0.5690143 -0.455252,-0.9754532 -0.975528,-0.9754532 -0.568951,0 -0.975436,0.4064389 -0.975436,0.9754532 V 5.508751 c 0,0.5690144 0.406485,0.9754539 0.975436,0.9754539 z m -6.9744487,0 v 0 c 0.5852985,0 0.9916923,-0.4064395 0.9916923,-0.9754539 V 3.1351486 c 0,-0.5690143 -0.4063938,-0.9754532 -0.9916923,-0.9754532 -0.5202754,0 -0.9754365,0.4064389 -0.9754365,0.9754532 V 5.508751 c 0,0.5690144 0.4551611,0.9754539 0.9754365,0.9754539 z"
   style="fill:#fefefe;fill-opacity:1;fill-rule:nonzero;stroke:none;stroke-width:1.78019702" /><path
   inkscape:connector-curvature="0"
   id="path3123"
   d="m 22.934793,7.9798995 v 0 0.048776 c 0,0 0,0 0,0 L 24.316714,6.8906467 C 24.609318,6.646783 25.113337,6.646783 25.405941,7.0044498 l 1.674525,2.0159363 c 0.292695,0.3414092 0.227672,0.8616508 -0.11379,1.1542869 l -1.333063,1.089256 z"
   style="fill:#fefefe;fill-opacity:1;fill-rule:nonzero;stroke:none;stroke-width:1.78019702" /><path
   inkscape:connector-curvature="0"
   id="path3125"
   d="m 16.415596,13.393665 v 0 l 5.65755,-4.6659177 2.650053,3.2189957 -5.657641,4.665918 z"
   style="fill:#fefefe;fill-opacity:1;fill-rule:nonzero;stroke:none;stroke-width:1.78019702" /><path
   inkscape:connector-curvature="0"
   id="path3127"
   d="m 15.732763,14.206543 v 0 l 2.422381,2.92636 -3.462932,0.634044 c -0.292603,0.06503 -0.406394,-0.113802 -0.292603,-0.276378 z"
   style="fill:#fefefe;fill-opacity:1;fill-rule:nonzero;stroke:none;stroke-width:1.78019702" /><g
   id="g865"
   transform="matrix(0.90225604,0,0,0.90225604,17.903791,4.4208388)"
   style="stroke-width:1.10833287"><path
     inkscape:connector-curvature="0"
     d="M 7.4499415,-4.8247316 H -15.685059 c -3.435,0 -4,0.612313 -4,4.04856307 V 22.405993 c 0,3.43375 0.893,3.999275 4.328,3.999275 H 7.2159415 c 3.4349995,0 4.3289995,-0.752675 4.3289995,-4.186425 V -0.72938153 c 0,-3.43625007 -0.66,-4.09535007 -4.0949995,-4.09535007 z"
     id="path4314"
     style="fill:#ebe831;fill-opacity:1;fill-rule:nonzero;stroke:#ffffff;stroke-width:0.13854161;stroke-miterlimit:4;stroke-dasharray:none;stroke-opacity:1" /><path
     style="stroke:#000000;stroke-width:0.03879165;stroke-miterlimit:4;stroke-dasharray:none;stroke-opacity:1"
     id="path2"
     d="m 4.2239415,6.2146764 c 0,-4.7245359 -3.97100001,-8.5457099 -8.744,-8.2945079 -4.323,0.251203 -7.7440005,3.821174 -7.8450005,8.1447519 0,2.159374 0.802,4.1689926 2.213,5.7293456 2.3040005,2.468546 2.0090005,5.328388 2.0090005,5.328388 0,0.550713 0.454,1.004809 1.005,1.004809 h 6.13 c 0.55099999,0 1.00499999,-0.454096 1.05299999,-1.004809 0,0 -0.338,-2.78738 1.96200001,-5.275249 1.41,-1.512045 2.217,-3.5216636 2.217,-5.6327286 z m -6.183,9.9514766 h -4.223 c -0.101,-2.062758 -1.004,-4.072377 -2.463,-5.627899 -1.107,-1.2077026 -1.6570005,-2.7632246 -1.6570005,-4.3718856 0.05,-3.3187689 2.6130005,-6.02885593 5.9320005,-6.23174993 3.61799999,-0.202895 6.633,2.71491703 6.633,6.28005793 0,1.560353 -0.604,3.115875 -1.71000001,4.2704386 -1.508,1.608661 -2.41099999,3.61828 -2.51199999,5.681038 z"
     inkscape:connector-curvature="0" /><path
     style="stroke-width:1.81232679"
     id="path4"
     d="m -2.4830585,18.660584 -3.517,0.607731 c -0.543,0.09375 -0.913,0.618521 -0.82,1.161195 0.09,0.542675 0.619,0.912841 1.162,0.819091 l 3.518,-0.607731 c 0.542,-0.09375 0.912,-0.618522 0.819,-1.161196 -0.09,-0.542675 -0.614,-0.913662 -1.162,-0.81909 z"
     inkscape:connector-curvature="0" /><path
     style="stroke-width:1.81232679"
     id="path4-8"
     d="m -2.4980585,21.105689 -3.51,0.648686 c -0.542,0.100068 -0.906,0.629117 -0.806,1.170662 0.1,0.541545 0.629,0.905571 1.171,0.805503 l 3.51,-0.648686 c 0.542,-0.100068 0.906,-0.629118 0.806,-1.170663 -0.1,-0.541545 -0.624,-0.906447 -1.171,-0.805502 z"
     inkscape:connector-curvature="0" /></g></svg>