<?xml version="1.0" encoding="UTF-8" standalone="no"?>
<svg
   xmlns:dc="http://purl.org/dc/elements/1.1/"
   xmlns:cc="http://creativecommons.org/ns#"
   xmlns:rdf="http://www.w3.org/1999/02/22-rdf-syntax-ns#"
   xmlns:svg="http://www.w3.org/2000/svg"
   xmlns="http://www.w3.org/2000/svg"
   xmlns:sodipodi="http://sodipodi.sourceforge.net/DTD/sodipodi-0.dtd"
   xmlns:inkscape="http://www.inkscape.org/namespaces/inkscape"
   xml:space="preserve"
   style="enable-background:new 0 0 28.3 28.3;"
   viewBox="0 0 28.3 28.3"
   y="0px"
   x="0px"
   id="Layer_1"
   version="1.1"
   sodipodi:docname="Todo.svg"
   inkscape:version="0.92.4 (5da689c313, 2019-01-14)"><sodipodi:namedview
   pagecolor="#ffffff"
   bordercolor="#666666"
   borderopacity="1"
   objecttolerance="10"
   gridtolerance="10"
   guidetolerance="10"
   inkscape:pageopacity="0"
   inkscape:pageshadow="2"
   inkscape:window-width="1920"
   inkscape:window-height="1017"
   id="namedview8"
   showgrid="false"
   inkscape:zoom="16"
   inkscape:cx="14.15"
   inkscape:cy="11.85339"
   inkscape:window-x="1672"
   inkscape:window-y="122"
   inkscape:window-maximized="1"
   inkscape:current-layer="Layer_1" /><metadata
   id="metadata12"><rdf:RDF><cc:Work
       rdf:about=""><dc:format>image/svg+xml</dc:format><dc:type
         rdf:resource="http://purl.org/dc/dcmitype/StillImage" /><dc:title></dc:title></cc:Work></rdf:RDF></metadata><defs
   id="defs10" />
<style
   id="style2"
   type="text/css">
	.st0{fill:#3CB4E5;}
	.st1{fill:#FFFFFF;}
</style>
<rect
   style="fill:#6b6b6b;fill-opacity:1"
   x="0"
   ry="2.6381354"
   height="28.299999"
   width="28.299999"
   class="st0"
   y="0"
   id="rect4529_00000061449998730043243630000000670997949188021154_" />
<polygon
   id="polygon5"
   points="12.7,1.6 9.8,4.7 17.6,11.9 3.7,11.9 3.7,16.1 17.6,16.1 9.8,23.4 12.7,26.4 26,14 "
   class="st1" />
<path
   style="fill:#7c9dab;fill-opacity:1;fill-rule:nonzero;stroke:none;stroke-width:1.78019702"
   d="m 29.582451,24.833427 v 2.162254 c 0,3.400176 -0.601267,4.086237 -4.001443,4.086237 H 2.285455 c -3.400176,0 -3.803046,-0.474075 -3.803046,-3.874252 V 3.78492 c 0,-3.400178 0.530061,-3.803045 3.930237,-3.803045 h 23.295553 c 3.400176,0 3.874252,0.65725 3.874252,4.057427 z"
   id="path3119"
   inkscape:connector-curvature="0" /><path
   style="fill:#fefefe;fill-opacity:1;fill-rule:nonzero;stroke:none;stroke-width:1.78019702"
   d="m 8.771948,24.192556 v 0 L 3.91201,19.35042 h 3.204355 c 0.890098,0 1.655583,0.747683 1.655583,1.691187 z m 10.592172,-4.78873 v 0 l -0.818891,0.195821 v 3.720612 c 0,0.872297 -0.765485,1.637781 -1.708989,1.637781 h -6.622332 v -3.916433 c 0,-1.691187 -1.388554,-3.079742 -3.097543,-3.079742 H 3.021912 V 7.351891 c 0,-0.943505 0.765484,-1.637782 1.637781,-1.637782 H 5.104742 V 4.27215 H 4.659693 c -0.373841,0 -0.694277,0.124613 -0.99691,0.178019 -1.014713,0.391644 -1.780197,1.26394 -2.029425,2.278653 0,0.195821 -0.05341,0.445049 -0.05341,0.623069 v 11.357657 c 0,0 0,0 0,0 v 4.610711 c 0,1.708989 1.388554,3.079741 3.079741,3.079741 0,0 2.278652,0 4.61071,0 H 14.7 v 0 h 2.13624 v 0 0 c 0,0 0,0 0,0 0.373841,0 0.765485,-0.124614 1.068118,-0.249228 0.943505,-0.302633 1.708989,-1.192732 1.958217,-2.207444 0,-0.249227 0.07121,-0.445049 0.07121,-0.623069 V 18.958776 Z M 12.741787,4.27215 v 0 c -0.195821,0 -0.320435,0 -0.516257,0 0,0 0,0 0,0 H 8.896562 v 1.441959 h 3.845225 z m 5.803442,3.079741 v 0 4.681918 l 1.388554,-1.139326 V 7.351891 c 0,-1.691188 -1.388554,-3.079741 -3.097543,-3.079741 h -0.373841 v 1.441959 h 0.373841 c 0.943504,0 1.708989,0.694277 1.708989,1.637782 z m -3.916433,-0.17802 v 0 c 0.569663,0 1.068118,-0.445049 1.068118,-1.068118 V 3.506665 c 0,-0.623069 -0.498455,-1.068118 -1.068118,-1.068118 -0.623069,0 -1.068118,0.445049 -1.068118,1.068118 v 2.599088 c 0,0.623069 0.445049,1.068118 1.068118,1.068118 z m -7.637045,0 v 0 c 0.640871,0 1.08592,-0.445049 1.08592,-1.068118 V 3.506665 c 0,-0.623069 -0.445049,-1.068118 -1.08592,-1.068118 -0.569663,0 -1.068118,0.445049 -1.068118,1.068118 v 2.599088 c 0,0.623069 0.498455,1.068118 1.068118,1.068118 z"
   id="path3121"
   inkscape:connector-curvature="0" /><path
   style="fill:#fefefe;fill-opacity:1;fill-rule:nonzero;stroke:none;stroke-width:1.78019702"
   d="m 23.654395,8.811652 v 0 0.05341 c 0,0 0,0 0,0 l 1.513167,-1.246138 c 0.320436,-0.267029 0.872297,-0.267029 1.192732,0.124614 l 1.833603,2.207444 c 0.320436,0.373842 0.249228,0.943505 -0.124614,1.26394 l -1.459761,1.192732 z"
   id="path3123"
   inkscape:connector-curvature="0" /><path
   style="fill:#fefefe;fill-opacity:1;fill-rule:nonzero;stroke:none;stroke-width:1.78019702"
   d="m 16.515805,14.739708 v 0 l 6.195085,-5.109165 2.901721,3.52479 -6.195085,5.109166 z"
   id="path3125"
   inkscape:connector-curvature="0" /><path
   style="fill:#fefefe;fill-opacity:1;fill-rule:nonzero;stroke:none;stroke-width:1.78019702"
   d="m 15.768122,15.629807 v 0 l 2.652493,3.204355 -3.791819,0.694277 c -0.320435,0.07121 -0.445049,-0.124613 -0.320435,-0.302633 z"
   id="path3127"
   inkscape:connector-curvature="0" /></svg>