<?xml version="1.0" encoding="UTF-8" standalone="no"?>
<!-- Generator: Adobe Illustrator 27.8.0, SVG Export Plug-In . SVG Version: 6.00 Build 0)  -->

<svg
   xmlns:dc="http://purl.org/dc/elements/1.1/"
   xmlns:cc="http://creativecommons.org/ns#"
   xmlns:rdf="http://www.w3.org/1999/02/22-rdf-syntax-ns#"
   xmlns:svg="http://www.w3.org/2000/svg"
   xmlns="http://www.w3.org/2000/svg"
   xmlns:sodipodi="http://sodipodi.sourceforge.net/DTD/sodipodi-0.dtd"
   xmlns:inkscape="http://www.inkscape.org/namespaces/inkscape"
   version="1.1"
   id="Layer_1"
   x="0px"
   y="0px"
   viewBox="0 0 28.3 28.3"
   style="enable-background:new 0 0 28.3 28.3;"
   xml:space="preserve"
   sodipodi:docname="Note.svg"
   inkscape:version="0.92.4 (5da689c313, 2019-01-14)"><metadata
   id="metadata16"><rdf:RDF><cc:Work
       rdf:about=""><dc:format>image/svg+xml</dc:format><dc:type
         rdf:resource="http://purl.org/dc/dcmitype/StillImage" /><dc:title></dc:title></cc:Work></rdf:RDF></metadata><defs
   id="defs14" /><sodipodi:namedview
   pagecolor="#ffffff"
   bordercolor="#666666"
   borderopacity="1"
   objecttolerance="10"
   gridtolerance="10"
   guidetolerance="10"
   inkscape:pageopacity="0"
   inkscape:pageshadow="2"
   inkscape:window-width="1920"
   inkscape:window-height="1017"
   id="namedview12"
   showgrid="false"
   inkscape:zoom="23.586885"
   inkscape:cx="14.014598"
   inkscape:cy="15.930594"
   inkscape:window-x="1672"
   inkscape:window-y="122"
   inkscape:window-maximized="1"
   inkscape:current-layer="Layer_1" />
<style
   type="text/css"
   id="style2">
	.st0{fill:#F88D2A;}
	.st1{fill:#FFFFFF;}
</style>
<rect
   id="rect4529_00000063604551412590299490000010309977182047121825_"
   y="0"
   class="st0"
   width="28.299999"
   height="28.299999"
   ry="2.0385592"
   x="0"
   style="fill:#ffffff;fill-opacity:1" />
<polygon
   class="st1"
   points="27.8,14.1 22.4,16.8 25.2,22.2 19.2,21.1 18.4,27.2 14.1,22.8 9.9,27.2 9.1,21.1 3.1,22.2 5.9,16.8   0.5,14.1 5.9,11.5 3.1,6.1 9.1,7.1 9.9,1.1 14.1,5.5 18.4,1.1 19.2,7.1 25.2,6.1 22.4,11.5 "
   id="polygon5" />
<g
   id="g9">
	<path
   class="st0"
   d="M14.4,16.5H14c0-0.7-0.2-1.7-0.5-2.7L13,11.7c-0.3-1.3-0.5-2.2-0.5-2.8c0-0.5,0.2-0.9,0.5-1.2   c0.3-0.3,0.7-0.5,1.2-0.5s0.9,0.2,1.2,0.5s0.5,0.7,0.5,1.2s-0.2,1.4-0.5,2.8l-0.5,2.1C14.6,14.6,14.4,15.5,14.4,16.5z M14.2,17.9   c0.4,0,0.8,0.2,1.1,0.5s0.5,0.7,0.5,1.1s-0.2,0.8-0.5,1.1s-0.7,0.5-1.1,0.5c-0.4,0-0.8-0.2-1.1-0.5s-0.5-0.7-0.5-1.1   s0.2-0.8,0.5-1.1C13.3,18.1,13.7,17.9,14.2,17.9z"
   id="path7" />
</g>
<path
   inkscape:connector-curvature="0"
   id="path3121"
   d="m 9.3435213,22.026426 v 0 L 4.9052441,17.604372 h 2.9263095 c 0.812879,0 1.5119677,0.682817 1.5119677,1.544467 z m 9.6732697,-4.373281 v 0 l -0.747856,0.178832 v 3.397829 c 0,0.79662 -0.699089,1.495695 -1.560735,1.495695 h -6.04778 v -3.576662 c 0,-1.544467 -1.2681314,-2.812556 -2.8288664,-2.812556 H 4.0923651 V 6.6467798 c 0,-0.8616499 0.6989974,-1.4956946 1.4956207,-1.4956946 H 5.9944709 V 3.8342234 H 5.5879858 c -0.3413708,0 -0.6339744,0.1138028 -0.9104136,0.1625755 -0.9266692,0.3576662 -1.625758,1.1542863 -1.8533385,2.0809665 0,0.1788334 -0.048402,0.4064395 -0.048402,0.5690144 V 17.0191 c 0,0 0,0 0,0 v 4.210706 c 0,1.560725 1.2681315,2.812557 2.8125194,2.812557 0,0 2.0810102,0 4.210788,0 h 4.9585529 v 0 h 1.950873 v 0 0 c 0,0 0,0 0,0 0.341371,0 0.699089,-0.113803 0.975436,-0.227606 0.861647,-0.276378 1.560735,-1.089256 1.788316,-2.015937 0,-0.227605 0.06484,-0.406438 0.06484,-0.569014 V 17.246705 Z M 12.96892,3.8342234 v 0 c -0.178814,0 -0.292604,0 -0.471417,0 0,0 0,0 0,0 H 9.4573116 V 5.1510852 H 12.96892 Z m 5.300015,2.8125564 v 0 4.2757372 l 1.26804,-1.0404833 V 6.6467798 c 0,-1.5444674 -1.26804,-2.8125564 -2.828775,-2.8125564 H 16.366737 V 5.1510852 H 16.7082 c 0.861646,0 1.560735,0.6340447 1.560735,1.4956946 z M 14.692212,6.4842049 v 0 c 0.520276,0 0.975528,-0.4064395 0.975528,-0.9754539 V 3.1351486 c 0,-0.5690143 -0.455252,-0.9754532 -0.975528,-0.9754532 -0.568951,0 -0.975436,0.4064389 -0.975436,0.9754532 V 5.508751 c 0,0.5690144 0.406485,0.9754539 0.975436,0.9754539 z m -6.9744487,0 v 0 c 0.5852985,0 0.9916923,-0.4064395 0.9916923,-0.9754539 V 3.1351486 c 0,-0.5690143 -0.4063938,-0.9754532 -0.9916923,-0.9754532 -0.5202754,0 -0.9754365,0.4064389 -0.9754365,0.9754532 V 5.508751 c 0,0.5690144 0.4551611,0.9754539 0.9754365,0.9754539 z"
   style="fill:#fefefe;fill-opacity:1;fill-rule:nonzero;stroke:none;stroke-width:1.78019702" /><path
   inkscape:connector-curvature="0"
   id="path3123"
   d="m 22.934793,7.9798995 v 0 0.048776 c 0,0 0,0 0,0 L 24.316714,6.8906467 C 24.609318,6.646783 25.113337,6.646783 25.405941,7.0044498 l 1.674525,2.0159363 c 0.292695,0.3414092 0.227672,0.8616508 -0.11379,1.1542869 l -1.333063,1.089256 z"
   style="fill:#fefefe;fill-opacity:1;fill-rule:nonzero;stroke:none;stroke-width:1.78019702" /><path
   inkscape:connector-curvature="0"
   id="path3125"
   d="m 16.415596,13.393665 v 0 l 5.65755,-4.6659177 2.650053,3.2189957 -5.657641,4.665918 z"
   style="fill:#fefefe;fill-opacity:1;fill-rule:nonzero;stroke:none;stroke-width:1.78019702" /><path
   inkscape:connector-curvature="0"
   id="path3127"
   d="m 15.732763,14.206543 v 0 l 2.422381,2.92636 -3.462932,0.634044 c -0.292603,0.06503 -0.406394,-0.113802 -0.292603,-0.276378 z"
   style="fill:#fefefe;fill-opacity:1;fill-rule:nonzero;stroke:none;stroke-width:1.78019702" /><g
   id="g3005"
   transform="matrix(1.1312187,0,0,-1.1312187,-129.52763,603.79655)"
   style="stroke-width:1.105003"><g
     id="g4316"
     style="stroke-width:1.105003"><path
       inkscape:connector-curvature="0"
       style="fill:#ffffff;fill-opacity:1;fill-rule:nonzero;stroke:none;stroke-width:1.105003"
       id="path3215"
       d="m 114.54,508.74 h 24.98 v 24.98 h -24.98 z" /><path
       inkscape:connector-curvature="0"
       style="fill:#7fcc28;fill-opacity:1;fill-rule:nonzero;stroke:none;stroke-width:1.105003"
       id="path4314"
       d="m 136.24372,533.721 h -18.5083 c -2.748,0 -3.20042,-0.48985 -3.20042,-3.23885 v -18.54573 c 0,-2.747 0.71442,-3.19942 3.46242,-3.19942 h 18.05916 c 2.748,0 3.46242,0.60214 3.46242,3.34914 v 18.35858 c 0,2.749 -0.52728,3.27628 -3.27528,3.27628 z" /><path
       inkscape:connector-curvature="0"
       style="fill:#ffffff;fill-opacity:1;fill-rule:nonzero;stroke:none;stroke-width:1.105003"
       id="path4312"
       d="m 122.682,517.464 -4.8,10.123 c -0.296,0.592 -0.148,1.297 0.423,1.628 l 3.285,1.897 c 0.573,0.33 1.258,0.104 1.622,-0.446 l 6.366,-9.219 c 0.364,-0.551 0.196,-1.27 -0.377,-1.601 l -4.945,-2.855 c -0.572,-0.332 -1.28,-0.119 -1.574,0.473 z" /><path
       inkscape:connector-curvature="0"
       style="fill:#ffffff;fill-opacity:1;fill-rule:nonzero;stroke:none;stroke-width:1.105003"
       id="path4310"
       d="m 127.022,514.065 -0.332,0.576 c -0.459,0.797 -1.27,1.312 -2.138,1.625 0.032,0.016 0.066,0.026 0.096,0.043 l 4.946,2.856 c 0.032,0.018 0.057,0.042 0.086,0.061 -0.162,-0.907 -0.121,-1.867 0.338,-2.664 l 0.333,-0.576 c 0.165,-0.286 0.066,-0.655 -0.221,-0.819 l -2.287,-1.321 c -0.286,-0.166 -0.655,-0.067 -0.821,0.219 z" /><path
       inkscape:connector-curvature="0"
       style="fill:#ffffff;fill-opacity:1;fill-rule:nonzero;stroke:none;stroke-width:1.105003"
       id="path4308"
       d="m 130.842,512.639 -1.406,-0.257 c -0.302,-0.062 -0.47,-0.076 -0.624,0.191 l -0.291,0.506 c -0.154,0.267 -0.125,0.375 0.14,0.528 l 1.267,0.731 c 0.266,0.155 0.373,0.126 0.528,-0.141 l 0.666,-1.155 c 0.155,-0.266 0.022,-0.342 -0.28,-0.403 z" /><path
       inkscape:connector-curvature="0"
       style="fill:#ffffff;fill-opacity:1;fill-rule:nonzero;stroke:none;stroke-width:1.105003"
       id="path3231"
       d="m 136.321,512.453 h -3.187 c -0.384,0 -0.694,0.312 -0.694,0.694 0,0.384 0.31,0.694 0.694,0.694 h 3.187 c 0.383,0 0.693,-0.31 0.693,-0.694 0,-0.382 -0.31,-0.694 -0.693,-0.694" /><path
       inkscape:connector-curvature="0"
       style="fill:#7fcc28;fill-opacity:1;fill-rule:nonzero;stroke:none;stroke-width:1.105003"
       id="path3219"
       d="m 122.316,529.789 c -0.11,0.159 -0.323,0.206 -0.489,0.11 l -2.735,-1.577 c -0.177,-0.102 -0.237,-0.329 -0.134,-0.506 0.102,-0.178 0.328,-0.239 0.506,-0.137 l -0.001,10e-4 2.439,1.406 5.554,-8.024 c 0.071,-0.104 0.187,-0.16 0.304,-0.16 0.073,0 0.147,0.021 0.211,0.066 0.169,0.116 0.21,0.347 0.094,0.515 l -5.749,8.306" /></g></g></svg>