<?xml version="1.0" encoding="UTF-8" standalone="no"?>
<svg
   xmlns:dc="http://purl.org/dc/elements/1.1/"
   xmlns:cc="http://creativecommons.org/ns#"
   xmlns:rdf="http://www.w3.org/1999/02/22-rdf-syntax-ns#"
   xmlns:svg="http://www.w3.org/2000/svg"
   xmlns="http://www.w3.org/2000/svg"
   xmlns:sodipodi="http://sodipodi.sourceforge.net/DTD/sodipodi-0.dtd"
   xmlns:inkscape="http://www.inkscape.org/namespaces/inkscape"
   xml:space="preserve"
   style="enable-background:new 0 0 28.3 28.3;"
   viewBox="0 0 28.3 28.3"
   y="0px"
   x="0px"
   id="Layer_1"
   version="1.1"
   sodipodi:docname="Info.svg"
   inkscape:version="0.92.4 (5da689c313, 2019-01-14)"><sodipodi:namedview
   pagecolor="#ffffff"
   bordercolor="#666666"
   borderopacity="1"
   objecttolerance="10"
   gridtolerance="10"
   guidetolerance="10"
   inkscape:pageopacity="0"
   inkscape:pageshadow="2"
   inkscape:window-width="1920"
   inkscape:window-height="1017"
   id="namedview8"
   showgrid="false"
   inkscape:zoom="16"
   inkscape:cx="14.15"
   inkscape:cy="9.3533896"
   inkscape:window-x="1672"
   inkscape:window-y="122"
   inkscape:window-maximized="1"
   inkscape:current-layer="Layer_1" /><metadata
   id="metadata12"><rdf:RDF><cc:Work
       rdf:about=""><dc:format>image/svg+xml</dc:format><dc:type
         rdf:resource="http://purl.org/dc/dcmitype/StillImage" /><dc:title></dc:title></cc:Work></rdf:RDF></metadata><defs
   id="defs10" />
<style
   id="style2"
   type="text/css">
	.st0{fill:#3CB4E5;}
	.st1{fill:#FFFFFF;}
</style>
<rect
   style="fill:#6b6b6b;fill-opacity:1"
   x="0"
   ry="2.6381354"
   height="28.299999"
   width="28.299999"
   class="st0"
   y="0"
   id="rect4529_00000061449998730043243630000000670997949188021154_" />
<polygon
   id="polygon5"
   points="12.7,1.6 9.8,4.7 17.6,11.9 3.7,11.9 3.7,16.1 17.6,16.1 9.8,23.4 12.7,26.4 26,14 "
   class="st1" />
<path
   inkscape:connector-curvature="0"
   id="path3031"
   d="m 28.252785,22.4915 v 1.461891 c 0,3.085293 -0.974181,4.20794 -4.076726,4.20794 H 3.8868084 c -3.10254504,0 -4.01175154,-0.968764 -4.01175154,-4.054057 V 4.1616724 c 0,-3.0852925 0.83185729,-4.13137792 3.93437964,-4.14332657 L 23.789199,-0.05859264 c 3.102523,-0.01195349 4.553558,0.51946796 4.540958,3.60473624 z"
   style="fill:#1477c5;fill-opacity:1;fill-rule:nonzero;stroke:none;stroke-width:1" /><path
   inkscape:connector-curvature="0"
   id="path3033"
   d="m 16.96342,6.4027497 v 0 c 0,1.4861095 -1.267008,2.7460719 -2.761427,2.7460719 -1.543151,0 -2.810159,-1.2599624 -2.810159,-2.7460719 0,-1.5345696 1.267008,-2.7460719 2.810159,-2.7460719 1.494419,0 2.761427,1.2115023 2.761427,2.7460719 z"
   style="fill:#fefefe;fill-opacity:1;fill-rule:nonzero;stroke:none;stroke-width:1" /><path
   inkscape:connector-curvature="0"
   id="path3035"
   d="m 16.96342,11.329526 v 0 c 0,-0.694595 -0.568529,-1.259963 -1.315739,-1.259963 H 10.75833 c -0.698478,0 -1.3319824,0.565368 -1.3319824,1.259963 v 0.516907 c 0,0.678442 0.6335044,1.259963 1.3319824,1.259963 h 0.633504 v 7.559774 c 0,1.53457 1.267008,2.746072 2.810159,2.746072 1.494419,0 2.761427,-1.211502 2.761427,-2.746072 z"
   style="fill:#fefefe;fill-opacity:1;fill-rule:nonzero;stroke:none;stroke-width:1" /></svg>